<?xml version="1.0" encoding="UTF-8"?>
<svg xmlns="http://www.w3.org/2000/svg" xmlns:xlink="http://www.w3.org/1999/xlink" width="50px" height="50px" viewBox="0 0 50 50" version="1.1">
<g id="surface1">
<path style=" stroke:none;fill-rule:nonzero;fill:rgb(0%,33.725491%,82.352942%);fill-opacity:1;" d="M 23.695312 49.953125 C 14.980469 49.515625 7.015625 44.480469 2.949219 36.730469 C -1.421875 28.691406 -0.949219 18.261719 4.472656 10.785156 C 9.890625 2.789062 19.785156 -1.453125 29.753906 0.480469 C 39.300781 2.265625 47.148438 9.839844 49.246094 19.042969 C 51.585938 28.09375 48.367188 38.152344 41.070312 44.128906 C 36.300781 48.195312 30.039062 50.285156 23.695312 49.953125 Z M 39.746094 33.179688 C 37.550781 31.863281 35.347656 30.554688 33.140625 29.25 C 31.261719 32.339844 27.132812 33.933594 23.621094 32.71875 C 19.402344 31.386719 16.550781 26.496094 18.4375 22.023438 C 20.105469 17.835938 24.25 16.382812 27.515625 16.890625 C 29.714844 17.304688 31.671875 18.550781 32.980469 20.367188 C 35.222656 19.050781 37.414062 17.828125 39.589844 16.503906 C 35.359375 10.007812 26.773438 7.554688 19.472656 10.765625 C 12.953125 13.730469 9.285156 20.515625 10.332031 27.261719 C 11.457031 34.757812 18.101562 40.773438 26.40625 40.605469 C 31.824219 40.554688 36.847656 37.757812 39.746094 33.179688 Z M 39.746094 33.179688 "/>
</g>
</svg>
