<?xml version="1.0" encoding="UTF-8"?>
<svg xmlns="http://www.w3.org/2000/svg" xmlns:xlink="http://www.w3.org/1999/xlink" width="32" height="32" viewBox="0 0 32 32">
<path fill-rule="nonzero" fill="rgb(0.784314%, 93.333333%, 38.039216%)" fill-opacity="1" d="M 0 0 C 10.558594 0 21.121094 0 32 0 C 32 10.558594 32 21.121094 32 32 C 21.441406 32 10.878906 32 0 32 C 0 21.441406 0 10.878906 0 0 Z M 0 0 "/>
<path fill-rule="nonzero" fill="rgb(1.176471%, 11.764706%, 16.078431%)" fill-opacity="1" d="M 9.90625 6.246094 C 10.460938 6.417969 10.910156 6.644531 11.410156 6.9375 C 11.503906 6.988281 11.601562 7.042969 11.695312 7.101562 C 11.996094 7.273438 12.292969 7.445312 12.589844 7.621094 C 12.785156 7.734375 12.984375 7.847656 13.179688 7.960938 C 16.347656 9.789062 16.347656 9.789062 16.800781 10.238281 C 16.824219 10.570312 16.839844 10.902344 16.851562 11.234375 C 16.855469 11.4375 16.863281 11.640625 16.871094 11.847656 C 16.878906 12.0625 16.882812 12.277344 16.890625 12.488281 C 16.898438 12.707031 16.902344 12.921875 16.910156 13.136719 C 16.929688 13.664062 16.945312 14.191406 16.960938 14.71875 C 17.054688 14.667969 17.148438 14.613281 17.242188 14.554688 C 17.675781 14.308594 18.109375 14.058594 18.539062 13.808594 C 18.6875 13.726562 18.832031 13.640625 18.984375 13.554688 C 19.429688 13.296875 19.875 13.046875 20.320312 12.800781 C 20.464844 12.714844 20.609375 12.632812 20.757812 12.546875 C 20.898438 12.46875 21.035156 12.394531 21.179688 12.316406 C 21.363281 12.210938 21.363281 12.210938 21.550781 12.105469 C 22.058594 11.960938 22.289062 12.105469 22.738281 12.351562 C 22.949219 12.492188 23.160156 12.640625 23.359375 12.800781 C 23.359375 12.90625 23.359375 13.011719 23.359375 13.121094 C 23.222656 13.195312 23.222656 13.195312 23.078125 13.269531 C 21.347656 14.207031 19.621094 15.144531 17.9375 16.167969 C 17.152344 16.640625 17.152344 16.640625 16.800781 16.640625 C 16.617188 18.070312 16.46875 19.578125 16.960938 20.960938 C 17.824219 21.972656 19.105469 22.46875 20.304688 22.980469 C 21.007812 23.292969 21.660156 23.671875 22.320312 24.058594 C 22.523438 24.175781 22.730469 24.289062 22.933594 24.402344 C 23.074219 24.480469 23.214844 24.558594 23.359375 24.640625 C 23 25.011719 22.675781 25.308594 22.238281 25.601562 C 21.082031 25.617188 20.210938 24.964844 19.25 24.378906 C 19.007812 24.234375 19.007812 24.234375 18.757812 24.085938 C 18.433594 23.890625 18.105469 23.695312 17.78125 23.5 C 17.097656 23.09375 16.414062 22.695312 15.726562 22.300781 C 15.359375 22.078125 15.359375 22.078125 15.199219 21.921875 C 15.1875 21.613281 15.183594 21.304688 15.183594 20.996094 C 15.183594 20.808594 15.183594 20.621094 15.1875 20.425781 C 15.1875 20.132812 15.1875 20.132812 15.191406 19.828125 C 15.191406 19.632812 15.191406 19.433594 15.191406 19.230469 C 15.195312 18.742188 15.195312 18.25 15.199219 17.761719 C 14.597656 18.09375 14 18.425781 13.398438 18.757812 C 13.195312 18.871094 12.988281 18.984375 12.785156 19.097656 C 12.492188 19.261719 12.199219 19.425781 11.902344 19.589844 C 11.726562 19.6875 11.550781 19.785156 11.367188 19.886719 C 11.054688 20.0625 10.75 20.246094 10.449219 20.4375 C 10.078125 20.640625 10.078125 20.640625 9.578125 20.621094 C 9.082031 20.46875 8.933594 20.417969 8.640625 20 C 8.589844 19.570312 8.570312 19.179688 8.574219 18.75 C 8.570312 18.625 8.570312 18.496094 8.570312 18.367188 C 8.566406 17.945312 8.566406 17.527344 8.566406 17.105469 C 8.5625 16.8125 8.5625 16.523438 8.5625 16.230469 C 8.558594 15.617188 8.558594 15.003906 8.558594 14.394531 C 8.5625 13.609375 8.554688 12.824219 8.550781 12.039062 C 8.546875 11.4375 8.542969 10.832031 8.546875 10.230469 C 8.546875 9.941406 8.542969 9.652344 8.539062 9.363281 C 8.539062 8.957031 8.539062 8.554688 8.542969 8.148438 C 8.539062 8.03125 8.539062 7.910156 8.535156 7.785156 C 8.546875 7.179688 8.59375 6.929688 9.015625 6.480469 C 9.441406 6.238281 9.441406 6.238281 9.90625 6.246094 Z M 9.90625 6.246094 "/>
<path fill-rule="nonzero" fill="rgb(1.960784%, 92.54902%, 38.431373%)" fill-opacity="1" d="M 10.238281 8.320312 C 10.980469 8.691406 11.71875 9.058594 12.480469 9.441406 C 12.882812 9.582031 12.882812 9.582031 13.292969 9.730469 C 14.074219 10.027344 14.742188 10.316406 15.199219 11.039062 C 15.542969 12.601562 15.363281 14.265625 15.199219 15.839844 C 14.570312 16.203125 13.941406 16.5625 13.3125 16.925781 C 13.097656 17.046875 12.882812 17.171875 12.671875 17.292969 C 12.363281 17.472656 12.054688 17.648438 11.746094 17.824219 C 11.652344 17.878906 11.554688 17.933594 11.457031 17.992188 C 11.054688 18.222656 10.683594 18.414062 10.238281 18.558594 C 10.238281 15.179688 10.238281 11.800781 10.238281 8.320312 Z M 10.238281 8.320312 "/>
<path fill-rule="nonzero" fill="rgb(1.568627%, 9.803922%, 16.862745%)" fill-opacity="1" d="M 10.238281 6.558594 C 10.292969 6.769531 10.34375 6.980469 10.398438 7.199219 C 10.082031 7.199219 9.765625 7.199219 9.441406 7.199219 C 9.519531 7.257812 9.59375 7.316406 9.675781 7.375 C 10.03125 7.820312 9.984375 8.167969 9.988281 8.734375 C 9.992188 8.839844 9.992188 8.945312 9.992188 9.054688 C 10 9.40625 10 9.757812 10 10.105469 C 10.003906 10.351562 10.007812 10.59375 10.011719 10.835938 C 10.019531 11.476562 10.023438 12.117188 10.027344 12.757812 C 10.03125 13.410156 10.039062 14.0625 10.046875 14.714844 C 10.058594 15.996094 10.070312 17.277344 10.078125 18.558594 C 10.296875 18.441406 10.296875 18.441406 10.519531 18.320312 C 11.109375 18.046875 11.519531 18.042969 12.160156 18.078125 C 12.160156 17.972656 12.160156 17.867188 12.160156 17.761719 C 12.371094 17.867188 12.582031 17.972656 12.800781 18.078125 C 12.683594 18.167969 12.570312 18.257812 12.449219 18.351562 C 11.992188 18.710938 11.992188 18.710938 11.589844 19.140625 C 11.242188 19.480469 10.988281 19.632812 10.558594 19.839844 C 10.453125 20 10.347656 20.15625 10.238281 20.320312 C 9.777344 20.394531 9.519531 20.359375 9.097656 20.152344 C 8.65625 19.691406 8.714844 19.230469 8.726562 18.625 C 8.726562 18.5 8.726562 18.378906 8.726562 18.25 C 8.726562 17.84375 8.734375 17.4375 8.738281 17.027344 C 8.738281 16.746094 8.738281 16.460938 8.742188 16.179688 C 8.742188 15.4375 8.75 14.691406 8.757812 13.949219 C 8.761719 13.1875 8.765625 12.429688 8.769531 11.667969 C 8.777344 10.179688 8.785156 8.691406 8.800781 7.199219 C 8.90625 7.199219 9.011719 7.199219 9.121094 7.199219 C 9.121094 7.042969 9.121094 6.882812 9.121094 6.71875 C 9.519531 6.609375 9.820312 6.558594 10.238281 6.558594 Z M 10.238281 6.558594 "/>
<path fill-rule="nonzero" fill="rgb(1.176471%, 12.54902%, 16.078431%)" fill-opacity="1" d="M 16 9.761719 C 16.394531 9.9375 16.394531 9.9375 16.800781 10.238281 C 16.90625 10.707031 16.90625 10.707031 16.914062 11.265625 C 16.917969 11.46875 16.921875 11.667969 16.925781 11.875 C 16.929688 12.1875 16.929688 12.1875 16.929688 12.511719 C 16.933594 12.722656 16.9375 12.9375 16.941406 13.152344 C 16.953125 13.675781 16.957031 14.195312 16.960938 14.71875 C 17.054688 14.667969 17.148438 14.613281 17.242188 14.554688 C 17.675781 14.308594 18.109375 14.058594 18.539062 13.808594 C 18.6875 13.726562 18.832031 13.640625 18.984375 13.554688 C 19.429688 13.296875 19.875 13.046875 20.320312 12.800781 C 20.464844 12.714844 20.609375 12.632812 20.757812 12.546875 C 20.898438 12.46875 21.035156 12.394531 21.179688 12.316406 C 21.363281 12.210938 21.363281 12.210938 21.550781 12.105469 C 22.058594 11.960938 22.289062 12.105469 22.738281 12.351562 C 22.949219 12.492188 23.160156 12.640625 23.359375 12.800781 C 23.359375 12.90625 23.359375 13.011719 23.359375 13.121094 C 23.265625 13.171875 23.171875 13.222656 23.074219 13.273438 C 22.632812 13.511719 22.191406 13.75 21.75 13.988281 C 21.511719 14.121094 21.511719 14.121094 21.265625 14.25 C 20.53125 14.652344 19.804688 15.054688 19.09375 15.5 C 18.984375 15.566406 18.878906 15.636719 18.765625 15.707031 C 18.566406 15.832031 18.367188 15.960938 18.171875 16.09375 C 17.902344 16.265625 17.902344 16.265625 17.441406 16.480469 C 17.054688 16.355469 17.054688 16.355469 16.800781 16.160156 C 17.011719 16.160156 17.222656 16.160156 17.441406 16.160156 C 17.441406 16.054688 17.441406 15.949219 17.441406 15.839844 C 17.546875 15.839844 17.652344 15.839844 17.761719 15.839844 C 17.707031 15.628906 17.65625 15.417969 17.601562 15.199219 C 17.367188 15.171875 17.367188 15.171875 17.128906 15.140625 C 16.96875 15.105469 16.804688 15.074219 16.640625 15.039062 C 16.417969 14.59375 16.445312 14.207031 16.429688 13.707031 C 16.421875 13.507812 16.414062 13.304688 16.410156 13.097656 C 16.402344 12.886719 16.394531 12.675781 16.390625 12.460938 C 16.382812 12.246094 16.375 12.03125 16.367188 11.816406 C 16.351562 11.292969 16.335938 10.765625 16.320312 10.238281 C 16.214844 10.1875 16.109375 10.132812 16 10.078125 C 16 9.972656 16 9.867188 16 9.761719 Z M 16 9.761719 "/>
<path fill-rule="nonzero" fill="rgb(0.392157%, 17.647059%, 14.901961%)" fill-opacity="1" d="M 18.398438 22.078125 C 18.503906 22.132812 18.609375 22.1875 18.71875 22.238281 C 18.71875 22.34375 18.71875 22.453125 18.71875 22.558594 C 18.859375 22.550781 19 22.542969 19.144531 22.53125 C 19.753906 22.5625 20.054688 22.710938 20.578125 23.015625 C 20.824219 23.15625 20.824219 23.15625 21.074219 23.300781 C 21.238281 23.398438 21.40625 23.496094 21.578125 23.601562 C 21.835938 23.75 21.835938 23.75 22.097656 23.902344 C 22.519531 24.144531 22.941406 24.390625 23.359375 24.640625 C 23 25.011719 22.675781 25.308594 22.238281 25.601562 C 21.285156 25.570312 20.644531 25.230469 19.859375 24.738281 C 19.699219 24.644531 19.699219 24.644531 19.53125 24.546875 C 18.742188 24.0625 18.742188 24.0625 18.558594 23.519531 C 18.160156 23.324219 18.160156 23.324219 17.761719 23.199219 C 17.761719 23.09375 17.761719 22.988281 17.761719 22.878906 C 17.546875 22.878906 17.335938 22.878906 17.121094 22.878906 C 17.121094 22.773438 17.121094 22.667969 17.121094 22.558594 C 17.015625 22.507812 16.910156 22.453125 16.800781 22.398438 C 16.800781 22.292969 16.800781 22.1875 16.800781 22.078125 C 17.394531 21.882812 17.789062 21.96875 18.398438 22.078125 Z M 18.398438 22.078125 "/>
<path fill-rule="nonzero" fill="rgb(0%, 27.058824%, 17.647059%)" fill-opacity="1" d="M 9.921875 7.679688 C 10.078125 7.679688 10.238281 7.679688 10.398438 7.679688 C 10.453125 7.785156 10.503906 7.890625 10.558594 8 C 10.65625 8.042969 10.75 8.085938 10.851562 8.128906 C 11.304688 8.375 11.535156 8.707031 11.839844 9.121094 C 11.34375 8.925781 10.878906 8.71875 10.398438 8.480469 C 10.347656 11.804688 10.292969 15.132812 10.238281 18.558594 C 10.082031 18.640625 10.082031 18.640625 9.921875 18.71875 C 9.921875 15.078125 9.921875 11.433594 9.921875 7.679688 Z M 9.921875 7.679688 "/>
<path fill-rule="nonzero" fill="rgb(0%, 18.039216%, 11.764706%)" fill-opacity="1" d="M 9.949219 6.261719 C 10.398438 6.398438 10.398438 6.398438 10.71875 6.71875 C 10.5625 6.773438 10.402344 6.824219 10.238281 6.878906 C 10.238281 6.773438 10.238281 6.667969 10.238281 6.558594 C 9.871094 6.613281 9.5 6.664062 9.121094 6.71875 C 9.121094 6.878906 9.121094 7.035156 9.121094 7.199219 C 9.015625 7.199219 8.910156 7.199219 8.800781 7.199219 C 8.808594 8.84375 8.820312 10.484375 8.835938 12.128906 C 8.84375 12.890625 8.851562 13.652344 8.855469 14.414062 C 8.859375 15.152344 8.867188 15.886719 8.875 16.621094 C 8.875 16.902344 8.878906 17.183594 8.878906 17.464844 C 8.882812 17.859375 8.886719 18.25 8.890625 18.644531 C 8.890625 18.761719 8.890625 18.878906 8.890625 18.996094 C 8.890625 19.355469 8.890625 19.355469 8.960938 19.839844 C 9.476562 20.183594 9.640625 20.25 10.238281 20.160156 C 10.402344 19.949219 10.5625 19.734375 10.71875 19.519531 C 11.148438 19.398438 11.148438 19.398438 11.519531 19.359375 C 11.519531 19.519531 11.519531 19.675781 11.519531 19.839844 C 10.273438 20.640625 10.273438 20.640625 9.539062 20.640625 C 9.085938 20.464844 8.917969 20.394531 8.640625 20 C 8.589844 19.570312 8.570312 19.179688 8.574219 18.75 C 8.570312 18.625 8.570312 18.496094 8.570312 18.367188 C 8.566406 17.945312 8.566406 17.527344 8.566406 17.105469 C 8.5625 16.8125 8.5625 16.523438 8.5625 16.230469 C 8.558594 15.617188 8.558594 15.003906 8.558594 14.394531 C 8.5625 13.609375 8.554688 12.824219 8.550781 12.039062 C 8.546875 11.4375 8.542969 10.832031 8.546875 10.230469 C 8.546875 9.941406 8.542969 9.652344 8.539062 9.363281 C 8.539062 8.957031 8.539062 8.554688 8.542969 8.148438 C 8.539062 8.03125 8.539062 7.910156 8.535156 7.785156 C 8.546875 7.183594 8.59375 6.929688 9.015625 6.480469 C 9.441406 6.238281 9.441406 6.238281 9.949219 6.261719 Z M 9.949219 6.261719 "/>
<path fill-rule="nonzero" fill="rgb(1.568627%, 9.803922%, 16.862745%)" fill-opacity="1" d="M 18.398438 22.078125 C 18.503906 22.132812 18.609375 22.1875 18.71875 22.238281 C 18.71875 22.34375 18.71875 22.453125 18.71875 22.558594 C 18.929688 22.558594 19.140625 22.558594 19.359375 22.558594 C 19.359375 22.664062 19.359375 22.769531 19.359375 22.878906 C 19.480469 22.894531 19.605469 22.90625 19.730469 22.921875 C 20.242188 23.0625 20.367188 23.234375 20.640625 23.679688 C 20.535156 23.785156 20.429688 23.890625 20.320312 24 C 20.160156 23.894531 20.003906 23.789062 19.839844 23.679688 C 19.839844 23.839844 19.839844 23.996094 19.839844 24.160156 C 19.734375 24.160156 19.628906 24.160156 19.519531 24.160156 C 19.519531 24.054688 19.519531 23.949219 19.519531 23.839844 C 19.203125 23.839844 18.886719 23.839844 18.558594 23.839844 C 18.558594 23.734375 18.558594 23.628906 18.558594 23.519531 C 18.164062 23.363281 18.164062 23.363281 17.761719 23.199219 C 17.761719 23.09375 17.761719 22.988281 17.761719 22.878906 C 17.546875 22.878906 17.335938 22.878906 17.121094 22.878906 C 17.121094 22.773438 17.121094 22.667969 17.121094 22.558594 C 17.015625 22.507812 16.910156 22.453125 16.800781 22.398438 C 16.800781 22.292969 16.800781 22.1875 16.800781 22.078125 C 17.394531 21.882812 17.789062 21.96875 18.398438 22.078125 Z M 18.398438 22.078125 "/>
<path fill-rule="nonzero" fill="rgb(0.392157%, 16.862745%, 15.294118%)" fill-opacity="1" d="M 12.640625 7.839844 C 13.398438 8.113281 14.074219 8.5 14.769531 8.898438 C 14.886719 8.96875 15.007812 9.035156 15.128906 9.105469 C 15.417969 9.269531 15.710938 9.433594 16 9.601562 C 15.519531 9.761719 15.519531 9.761719 15.039062 9.53125 C 14.882812 9.449219 14.722656 9.363281 14.558594 9.28125 C 14.402344 9.28125 14.242188 9.28125 14.078125 9.28125 C 14.027344 9.386719 13.972656 9.492188 13.921875 9.601562 C 14.183594 9.601562 14.449219 9.601562 14.71875 9.601562 C 14.71875 9.707031 14.71875 9.8125 14.71875 9.921875 C 14.5625 10 14.5625 10 14.398438 10.078125 C 14.398438 10.1875 14.398438 10.292969 14.398438 10.398438 C 14.503906 10.445312 14.605469 10.492188 14.710938 10.539062 C 15.039062 10.71875 15.039062 10.71875 15.199219 11.039062 C 14.441406 10.769531 13.765625 10.378906 13.070312 9.980469 C 12.953125 9.914062 12.832031 9.84375 12.710938 9.777344 C 12.421875 9.609375 12.128906 9.445312 11.839844 9.28125 C 12.316406 9.160156 12.796875 9.054688 13.28125 8.960938 C 12.964844 8.800781 12.644531 8.644531 12.320312 8.480469 C 12.425781 8.425781 12.53125 8.375 12.640625 8.320312 C 12.640625 8.160156 12.640625 8.003906 12.640625 7.839844 Z M 12.640625 7.839844 "/>
<path fill-rule="nonzero" fill="rgb(0%, 20%, 12.156863%)" fill-opacity="1" d="M 16 9.761719 C 16.394531 9.9375 16.394531 9.9375 16.800781 10.238281 C 16.90625 10.707031 16.90625 10.707031 16.914062 11.265625 C 16.917969 11.46875 16.921875 11.667969 16.925781 11.875 C 16.929688 12.1875 16.929688 12.1875 16.929688 12.511719 C 16.933594 12.722656 16.9375 12.9375 16.941406 13.152344 C 16.953125 13.675781 16.957031 14.195312 16.960938 14.71875 C 17.085938 14.636719 17.210938 14.554688 17.339844 14.46875 C 17.480469 14.394531 17.617188 14.316406 17.761719 14.238281 C 17.867188 14.292969 17.972656 14.34375 18.078125 14.398438 C 17.972656 14.558594 17.867188 14.71875 17.761719 14.878906 C 17.867188 14.984375 17.972656 15.089844 18.078125 15.199219 C 18.078125 15.304688 18.078125 15.410156 18.078125 15.519531 C 18.238281 15.519531 18.398438 15.519531 18.558594 15.519531 C 18.558594 15.414062 18.558594 15.308594 18.558594 15.199219 C 19.300781 14.859375 19.300781 14.859375 19.839844 15.039062 C 19.457031 15.289062 19.070312 15.535156 18.679688 15.78125 C 18.570312 15.851562 18.460938 15.921875 18.347656 15.996094 C 18.050781 16.183594 17.769531 16.351562 17.441406 16.480469 C 17.042969 16.363281 17.042969 16.363281 16.800781 16.160156 C 17.011719 16.160156 17.222656 16.160156 17.441406 16.160156 C 17.441406 16.054688 17.441406 15.949219 17.441406 15.839844 C 17.546875 15.839844 17.652344 15.839844 17.761719 15.839844 C 17.707031 15.628906 17.65625 15.417969 17.601562 15.199219 C 17.367188 15.171875 17.367188 15.171875 17.128906 15.140625 C 16.96875 15.105469 16.804688 15.074219 16.640625 15.039062 C 16.417969 14.59375 16.445312 14.207031 16.429688 13.707031 C 16.421875 13.507812 16.414062 13.304688 16.410156 13.097656 C 16.402344 12.886719 16.394531 12.675781 16.390625 12.460938 C 16.382812 12.246094 16.375 12.03125 16.367188 11.816406 C 16.351562 11.292969 16.335938 10.765625 16.320312 10.238281 C 16.214844 10.1875 16.109375 10.132812 16 10.078125 C 16 9.972656 16 9.867188 16 9.761719 Z M 16 9.761719 "/>
<path fill-rule="nonzero" fill="rgb(10.196078%, 80.784314%, 42.745098%)" fill-opacity="1" d="M 15.199219 17.761719 C 15.199219 17.882812 15.195312 18.003906 15.195312 18.128906 C 15.191406 18.683594 15.195312 19.234375 15.199219 19.789062 C 15.195312 19.980469 15.195312 20.171875 15.191406 20.371094 C 15.171875 21.390625 15.171875 21.390625 15.65625 22.230469 C 15.976562 22.433594 16.28125 22.589844 16.640625 22.71875 C 16.320312 22.878906 16.320312 22.878906 15.820312 22.730469 C 15.667969 22.675781 15.515625 22.617188 15.359375 22.558594 C 15.359375 22.453125 15.359375 22.347656 15.359375 22.238281 C 15.253906 22.238281 15.148438 22.238281 15.039062 22.238281 C 14.84375 21.847656 14.847656 21.558594 14.828125 21.117188 C 14.824219 20.960938 14.816406 20.804688 14.808594 20.640625 C 14.804688 20.476562 14.796875 20.308594 14.789062 20.140625 C 14.78125 19.972656 14.777344 19.808594 14.769531 19.636719 C 14.753906 19.222656 14.734375 18.8125 14.71875 18.398438 C 14.542969 18.5 14.367188 18.597656 14.1875 18.699219 C 14.085938 18.753906 13.988281 18.808594 13.886719 18.863281 C 13.5625 19.050781 13.5625 19.050781 13.191406 19.398438 C 12.707031 19.746094 12.421875 19.734375 11.839844 19.679688 C 12.171875 19.324219 12.492188 19.078125 12.914062 18.839844 C 13.027344 18.773438 13.140625 18.710938 13.257812 18.644531 C 13.375 18.582031 13.488281 18.515625 13.609375 18.449219 C 13.785156 18.351562 13.785156 18.351562 13.964844 18.25 C 14.839844 17.761719 14.839844 17.761719 15.199219 17.761719 Z M 15.199219 17.761719 "/>
<path fill-rule="nonzero" fill="rgb(10.588235%, 85.490196%, 42.745098%)" fill-opacity="1" d="M 17.441406 16.320312 C 17.546875 16.371094 17.652344 16.425781 17.761719 16.480469 C 17.601562 16.585938 17.441406 16.691406 17.28125 16.800781 C 17.214844 17.234375 17.214844 17.234375 17.234375 17.742188 C 17.234375 17.929688 17.234375 18.113281 17.238281 18.308594 C 17.242188 18.503906 17.246094 18.699219 17.25 18.898438 C 17.253906 19.097656 17.253906 19.292969 17.257812 19.496094 C 17.261719 19.984375 17.269531 20.472656 17.28125 20.960938 C 17.597656 21.011719 17.914062 21.066406 18.238281 21.121094 C 18.238281 21.015625 18.238281 20.910156 18.238281 20.800781 C 18.503906 20.800781 18.769531 20.800781 19.039062 20.800781 C 19.039062 20.90625 19.039062 21.011719 19.039062 21.121094 C 18.933594 21.171875 18.828125 21.226562 18.71875 21.28125 C 18.667969 21.761719 18.667969 21.761719 18.960938 22.03125 C 19.039062 22.097656 19.117188 22.167969 19.199219 22.238281 C 18.296875 22.007812 17.425781 21.664062 16.800781 20.960938 C 16.621094 20.214844 16.664062 19.5 16.710938 18.738281 C 16.714844 18.539062 16.722656 18.335938 16.730469 18.128906 C 16.746094 17.632812 16.769531 17.136719 16.800781 16.640625 C 17.101562 16.46875 17.101562 16.46875 17.441406 16.320312 Z M 17.441406 16.320312 "/>
<path fill-rule="nonzero" fill="rgb(10.588235%, 80.784314%, 42.745098%)" fill-opacity="1" d="M 13.761719 10.398438 C 14.304688 10.570312 14.722656 10.722656 15.199219 11.039062 C 15.253906 11.515625 15.253906 11.515625 15.246094 12.121094 C 15.246094 12.226562 15.246094 12.332031 15.246094 12.441406 C 15.242188 12.78125 15.234375 13.121094 15.230469 13.460938 C 15.226562 13.691406 15.226562 13.917969 15.222656 14.148438 C 15.21875 14.714844 15.210938 15.277344 15.199219 15.839844 C 14.355469 16.355469 14.355469 16.355469 14.078125 16.480469 C 13.972656 16.425781 13.867188 16.375 13.761719 16.320312 C 13.867188 16.160156 13.972656 16.003906 14.078125 15.839844 C 14.292969 15.839844 14.503906 15.839844 14.71875 15.839844 C 14.71875 14.308594 14.71875 12.777344 14.71875 11.199219 C 14.246094 11.121094 14.246094 11.121094 13.761719 11.039062 C 13.761719 10.828125 13.761719 10.617188 13.761719 10.398438 Z M 13.761719 10.398438 "/>
<path fill-rule="nonzero" fill="rgb(8.235294%, 87.843137%, 43.137255%)" fill-opacity="1" d="M 8.800781 6.238281 C 8.957031 6.292969 9.117188 6.34375 9.28125 6.398438 C 9.175781 6.507812 9.074219 6.613281 8.964844 6.722656 C 8.570312 7.300781 8.546875 7.734375 8.550781 8.40625 C 8.550781 8.527344 8.550781 8.644531 8.546875 8.765625 C 8.542969 9.15625 8.542969 9.546875 8.542969 9.9375 C 8.539062 10.210938 8.539062 10.480469 8.535156 10.753906 C 8.527344 11.464844 8.523438 12.179688 8.523438 12.890625 C 8.519531 13.621094 8.511719 14.347656 8.503906 15.078125 C 8.492188 16.503906 8.484375 17.933594 8.480469 19.359375 C 8.425781 19.359375 8.375 19.359375 8.320312 19.359375 C 8.316406 17.765625 8.3125 16.167969 8.3125 14.574219 C 8.3125 13.832031 8.308594 13.09375 8.308594 12.351562 C 8.304688 11.636719 8.304688 10.921875 8.304688 10.207031 C 8.304688 9.933594 8.304688 9.660156 8.304688 9.390625 C 8.300781 9.007812 8.300781 8.625 8.300781 8.242188 C 8.300781 8.128906 8.300781 8.019531 8.300781 7.902344 C 8.300781 6.859375 8.300781 6.859375 8.480469 6.398438 C 8.585938 6.347656 8.691406 6.292969 8.800781 6.238281 Z M 8.800781 6.238281 "/>
<path fill-rule="nonzero" fill="rgb(5.490196%, 88.235294%, 40%)" fill-opacity="1" d="M 23.039062 13.28125 C 23.039062 13.386719 23.039062 13.492188 23.039062 13.601562 C 22.757812 13.757812 22.476562 13.914062 22.195312 14.070312 C 21.894531 14.242188 21.894531 14.242188 21.601562 14.558594 C 21.601562 14.71875 21.601562 14.875 21.601562 15.039062 C 20.679688 15.21875 20.679688 15.21875 20.320312 15.039062 C 20.050781 15.195312 19.785156 15.355469 19.519531 15.519531 C 19.414062 15.519531 19.308594 15.519531 19.199219 15.519531 C 19.148438 15.679688 19.09375 15.835938 19.039062 16 C 18.746094 16.117188 18.746094 16.117188 18.390625 16.191406 C 18.273438 16.214844 18.15625 16.242188 18.035156 16.265625 C 17.945312 16.285156 17.851562 16.300781 17.761719 16.320312 C 18.144531 15.890625 18.558594 15.636719 19.0625 15.355469 C 19.304688 15.21875 19.304688 15.21875 19.550781 15.082031 C 19.71875 14.988281 19.886719 14.894531 20.058594 14.800781 C 20.390625 14.613281 20.722656 14.429688 21.054688 14.246094 C 21.199219 14.164062 21.347656 14.082031 21.5 13.996094 C 21.789062 13.835938 22.074219 13.664062 22.355469 13.488281 C 22.71875 13.28125 22.71875 13.28125 23.039062 13.28125 Z M 23.039062 13.28125 "/>
<path fill-rule="nonzero" fill="rgb(0%, 16.862745%, 11.372549%)" fill-opacity="1" d="M 15.199219 11.039062 C 15.816406 11.65625 15.613281 12.765625 15.640625 13.601562 C 15.648438 13.808594 15.65625 14.019531 15.667969 14.234375 C 15.671875 14.433594 15.679688 14.632812 15.6875 14.839844 C 15.695312 15.023438 15.699219 15.207031 15.707031 15.398438 C 15.679688 15.839844 15.679688 15.839844 15.359375 16.160156 C 15.203125 16.160156 15.042969 16.160156 14.878906 16.160156 C 14.878906 16.265625 14.878906 16.371094 14.878906 16.480469 C 14.722656 16.425781 14.5625 16.375 14.398438 16.320312 C 14.621094 16.078125 14.621094 16.078125 14.878906 15.839844 C 14.984375 15.839844 15.089844 15.839844 15.199219 15.839844 C 15.199219 14.257812 15.199219 12.671875 15.199219 11.039062 Z M 15.199219 11.039062 "/>
<path fill-rule="nonzero" fill="rgb(1.568627%, 11.764706%, 16.862745%)" fill-opacity="1" d="M 18.238281 13.921875 C 18.453125 13.972656 18.664062 14.027344 18.878906 14.078125 C 18.828125 14.1875 18.773438 14.292969 18.71875 14.398438 C 18.984375 14.398438 19.246094 14.398438 19.519531 14.398438 C 19.574219 14.503906 19.625 14.609375 19.679688 14.71875 C 19.574219 14.71875 19.46875 14.71875 19.359375 14.71875 C 19.359375 14.824219 19.359375 14.929688 19.359375 15.039062 C 19.097656 15.09375 18.832031 15.144531 18.558594 15.199219 C 18.558594 15.304688 18.558594 15.410156 18.558594 15.519531 C 18.347656 15.574219 18.136719 15.625 17.921875 15.679688 C 17.808594 15.28125 17.761719 14.980469 17.761719 14.558594 C 18 14.210938 18 14.210938 18.238281 13.921875 Z M 18.238281 13.921875 "/>
<path fill-rule="nonzero" fill="rgb(0%, 20%, 13.333333%)" fill-opacity="1" d="M 22.238281 12.320312 C 23 12.621094 23 12.621094 23.359375 12.800781 C 23.359375 12.90625 23.359375 13.011719 23.359375 13.121094 C 22.832031 13.414062 22.308594 13.707031 21.78125 14 C 21.628906 14.082031 21.480469 14.167969 21.324219 14.253906 C 21.183594 14.332031 21.039062 14.414062 20.890625 14.496094 C 20.757812 14.570312 20.625 14.640625 20.488281 14.71875 C 20.160156 14.878906 20.160156 14.878906 19.839844 14.878906 C 19.894531 14.667969 19.945312 14.457031 20 14.238281 C 20.265625 14.238281 20.527344 14.238281 20.800781 14.238281 C 20.800781 14.132812 20.800781 14.027344 20.800781 13.921875 C 20.945312 13.855469 21.089844 13.789062 21.238281 13.71875 C 21.726562 13.457031 22.035156 13.207031 22.398438 12.800781 C 22.347656 12.640625 22.292969 12.484375 22.238281 12.320312 Z M 22.238281 12.320312 "/>
<path fill-rule="nonzero" fill="rgb(12.54902%, 85.490196%, 44.313725%)" fill-opacity="1" d="M 16.800781 10.238281 C 16.90625 10.238281 17.011719 10.238281 17.121094 10.238281 C 17.171875 11.558594 17.226562 12.878906 17.28125 14.238281 C 17.4375 14.292969 17.597656 14.34375 17.761719 14.398438 C 17.441406 14.558594 17.125 14.71875 16.800781 14.878906 C 16.800781 13.347656 16.800781 11.816406 16.800781 10.238281 Z M 16.800781 10.238281 "/>
<path fill-rule="nonzero" fill="rgb(7.45098%, 83.921569%, 40.392157%)" fill-opacity="1" d="M 21.441406 11.519531 C 21.527344 11.566406 21.617188 11.613281 21.707031 11.660156 C 22.105469 11.851562 22.507812 12.015625 22.921875 12.179688 C 23.0625 12.238281 23.207031 12.292969 23.351562 12.351562 C 23.460938 12.394531 23.570312 12.4375 23.679688 12.480469 C 23.628906 12.742188 23.574219 13.007812 23.519531 13.28125 C 23.363281 13.226562 23.203125 13.175781 23.039062 13.121094 C 23.144531 13.121094 23.25 13.121094 23.359375 13.121094 C 23.359375 13.015625 23.359375 12.910156 23.359375 12.800781 C 23.1875 12.730469 23.1875 12.730469 23.011719 12.660156 C 22.558594 12.480469 22.558594 12.480469 22.195312 12.28125 C 21.574219 12.109375 21.304688 12.316406 20.75 12.621094 C 20.578125 12.710938 20.40625 12.804688 20.230469 12.898438 C 20.101562 12.972656 19.972656 13.042969 19.839844 13.121094 C 19.839844 12.960938 19.839844 12.804688 19.839844 12.640625 C 20.050781 12.640625 20.261719 12.640625 20.480469 12.640625 C 20.480469 12.535156 20.480469 12.429688 20.480469 12.320312 C 20.585938 12.320312 20.691406 12.320312 20.800781 12.320312 C 20.800781 12.214844 20.800781 12.109375 20.800781 12 C 21.011719 12 21.222656 12 21.441406 12 C 21.441406 11.839844 21.441406 11.683594 21.441406 11.519531 Z M 21.441406 11.519531 "/>
<path fill-rule="nonzero" fill="rgb(1.568627%, 9.803922%, 16.862745%)" fill-opacity="1" d="M 20.800781 24 C 21.273438 24.054688 21.75 24.105469 22.238281 24.160156 C 22.433594 24.738281 22.328125 24.902344 22.078125 25.441406 C 21.921875 25.441406 21.761719 25.441406 21.601562 25.441406 C 21.601562 25.335938 21.601562 25.230469 21.601562 25.121094 C 21.441406 25.121094 21.28125 25.121094 21.121094 25.121094 C 20.800781 24.179688 20.800781 24.179688 20.800781 24 Z M 20.800781 24 "/>
<path fill-rule="nonzero" fill="rgb(0%, 21.960784%, 12.54902%)" fill-opacity="1" d="M 14.398438 16.320312 C 14.292969 16.53125 14.1875 16.742188 14.078125 16.960938 C 13.867188 16.960938 13.65625 16.960938 13.441406 16.960938 C 13.441406 17.066406 13.441406 17.171875 13.441406 17.28125 C 12.519531 17.761719 12.519531 17.761719 12.160156 17.761719 C 12.160156 17.867188 12.160156 17.972656 12.160156 18.078125 C 11.894531 18.078125 11.632812 18.078125 11.359375 18.078125 C 11.804688 17.558594 12.382812 17.261719 12.96875 16.929688 C 13.070312 16.871094 13.175781 16.8125 13.277344 16.75 C 14.039062 16.320312 14.039062 16.320312 14.398438 16.320312 Z M 14.398438 16.320312 "/>
<path fill-rule="nonzero" fill="rgb(10.196078%, 78.823529%, 41.568627%)" fill-opacity="1" d="M 20.960938 14.238281 C 21.066406 14.292969 21.171875 14.34375 21.28125 14.398438 C 21.054688 14.558594 20.828125 14.714844 20.601562 14.871094 C 20.410156 15 20.410156 15 20.21875 15.132812 C 19.839844 15.359375 19.839844 15.359375 19.484375 15.441406 C 19.390625 15.46875 19.296875 15.492188 19.199219 15.519531 C 19.148438 15.679688 19.09375 15.835938 19.039062 16 C 18.746094 16.117188 18.746094 16.117188 18.390625 16.191406 C 18.273438 16.214844 18.15625 16.242188 18.035156 16.265625 C 17.945312 16.285156 17.851562 16.300781 17.761719 16.320312 C 18.296875 15.746094 18.9375 15.394531 19.609375 15 C 19.734375 14.925781 19.859375 14.847656 19.988281 14.769531 C 20.109375 14.699219 20.226562 14.628906 20.351562 14.558594 C 20.460938 14.492188 20.570312 14.429688 20.679688 14.359375 C 20.820312 14.300781 20.820312 14.300781 20.960938 14.238281 Z M 20.960938 14.238281 "/>
<path fill-rule="nonzero" fill="rgb(0%, 18.431373%, 14.901961%)" fill-opacity="1" d="M 9.921875 7.679688 C 10.078125 7.679688 10.238281 7.679688 10.398438 7.679688 C 10.453125 7.785156 10.503906 7.890625 10.558594 8 C 10.65625 8.042969 10.75 8.085938 10.851562 8.128906 C 11.304688 8.375 11.535156 8.707031 11.839844 9.121094 C 11.671875 9.050781 11.671875 9.050781 11.5 8.980469 C 10.730469 8.636719 10.730469 8.636719 9.921875 8.480469 C 9.921875 8.214844 9.921875 7.953125 9.921875 7.679688 Z M 9.921875 7.679688 "/>
<path fill-rule="nonzero" fill="rgb(0%, 20.784314%, 12.156863%)" fill-opacity="1" d="M 19.359375 22.558594 C 20.085938 22.777344 20.691406 23.070312 21.339844 23.460938 C 21.507812 23.5625 21.679688 23.664062 21.855469 23.765625 C 21.980469 23.84375 22.109375 23.921875 22.238281 24 C 21.761719 24.160156 21.761719 24.160156 21.433594 24.015625 C 21.253906 23.910156 21.253906 23.910156 21.070312 23.800781 C 20.945312 23.726562 20.816406 23.652344 20.6875 23.574219 C 20.566406 23.503906 20.445312 23.433594 20.320312 23.359375 C 20 23.199219 19.679688 23.035156 19.359375 22.878906 C 19.359375 22.773438 19.359375 22.667969 19.359375 22.558594 Z M 19.359375 22.558594 "/>
<path fill-rule="nonzero" fill="rgb(0%, 23.137255%, 13.333333%)" fill-opacity="1" d="M 9.929688 6.28125 C 10.398438 6.398438 10.398438 6.398438 10.71875 6.71875 C 10.5625 6.773438 10.402344 6.824219 10.238281 6.878906 C 10.238281 6.773438 10.238281 6.667969 10.238281 6.558594 C 9.871094 6.613281 9.5 6.664062 9.121094 6.71875 C 9.121094 6.878906 9.121094 7.035156 9.121094 7.199219 C 9.015625 7.199219 8.910156 7.199219 8.800781 7.199219 C 8.851562 6.898438 8.851562 6.898438 8.960938 6.558594 C 9.441406 6.238281 9.441406 6.238281 9.929688 6.28125 Z M 9.929688 6.28125 "/>
<path fill-rule="nonzero" fill="rgb(6.666667%, 86.27451%, 38.823529%)" fill-opacity="1" d="M 13.441406 19.039062 C 13.179688 19.359375 13.179688 19.359375 12.800781 19.679688 C 12.28125 19.71875 12.28125 19.71875 11.839844 19.679688 C 12.375 19.121094 12.664062 19.019531 13.441406 19.039062 Z M 13.441406 19.039062 "/>
<path fill-rule="nonzero" fill="rgb(8.627451%, 84.313725%, 43.137255%)" fill-opacity="1" d="M 9.601562 6.078125 C 10.46875 6.148438 10.992188 6.339844 11.679688 6.878906 C 11.734375 6.984375 11.785156 7.089844 11.839844 7.199219 C 11.042969 6.960938 10.332031 6.625 9.601562 6.238281 C 9.601562 6.1875 9.601562 6.132812 9.601562 6.078125 Z M 9.601562 6.078125 "/>
<path fill-rule="nonzero" fill="rgb(0%, 20.392157%, 13.333333%)" fill-opacity="1" d="M 12.800781 18.398438 C 13.117188 18.398438 13.433594 18.398438 13.761719 18.398438 C 13.199219 18.894531 12.722656 19.160156 12 19.359375 C 12.054688 19.203125 12.105469 19.042969 12.160156 18.878906 C 12.371094 18.878906 12.582031 18.878906 12.800781 18.878906 C 12.800781 18.722656 12.800781 18.5625 12.800781 18.398438 Z M 12.800781 18.398438 "/>
<path fill-rule="nonzero" fill="rgb(0%, 22.745098%, 14.117647%)" fill-opacity="1" d="M 10.71875 6.71875 C 11.355469 7.035156 11.988281 7.355469 12.640625 7.679688 C 12.160156 7.839844 12.160156 7.839844 11.796875 7.679688 C 11.671875 7.605469 11.542969 7.527344 11.410156 7.449219 C 11.28125 7.375 11.152344 7.296875 11.019531 7.21875 C 10.917969 7.160156 10.820312 7.101562 10.71875 7.039062 C 10.71875 6.933594 10.71875 6.828125 10.71875 6.71875 Z M 10.71875 6.71875 "/>
<path fill-rule="nonzero" fill="rgb(8.627451%, 83.529412%, 44.313725%)" fill-opacity="1" d="M 19.199219 15.519531 C 19.148438 15.679688 19.09375 15.835938 19.039062 16 C 18.746094 16.117188 18.746094 16.117188 18.390625 16.191406 C 18.273438 16.214844 18.15625 16.242188 18.035156 16.265625 C 17.898438 16.292969 17.898438 16.292969 17.761719 16.320312 C 18.523438 15.519531 18.523438 15.519531 19.199219 15.519531 Z M 19.199219 15.519531 "/>
<path fill-rule="nonzero" fill="rgb(0.392157%, 14.117647%, 15.686275%)" fill-opacity="1" d="M 12.160156 18.71875 C 12.054688 19.035156 11.949219 19.355469 11.839844 19.679688 C 11.679688 19.574219 11.523438 19.46875 11.359375 19.359375 C 11.414062 19.203125 11.464844 19.042969 11.519531 18.878906 C 11.839844 18.71875 11.839844 18.71875 12.160156 18.71875 Z M 12.160156 18.71875 "/>
<path fill-rule="nonzero" fill="rgb(9.411765%, 83.921569%, 42.352941%)" fill-opacity="1" d="M 14.878906 8.960938 C 15.144531 8.960938 15.40625 8.960938 15.679688 8.960938 C 15.679688 9.066406 15.679688 9.171875 15.679688 9.28125 C 15.890625 9.386719 16.101562 9.492188 16.320312 9.601562 C 16.160156 9.679688 16.160156 9.679688 16 9.761719 C 15.605469 9.582031 15.25 9.347656 14.878906 9.121094 C 14.878906 9.066406 14.878906 9.015625 14.878906 8.960938 Z M 14.878906 8.960938 "/>
</svg>
