<?xml version="1.0" encoding="UTF-8"?>
<svg xmlns="http://www.w3.org/2000/svg" xmlns:xlink="http://www.w3.org/1999/xlink" width="50px" height="50px" viewBox="0 0 50 50" version="1.1">
<g id="surface1">
<path style=" stroke:none;fill-rule:nonzero;fill:rgb(0.784314%,14.901961%,16.862746%);fill-opacity:1;" d="M 13.246094 21.699219 C 13.359375 22.039062 13.414062 22.394531 13.414062 22.773438 C 13.410156 22.9375 13.402344 23.097656 13.390625 23.257812 L 7.140625 23.257812 C 7.273438 22.765625 7.457031 22.316406 7.683594 21.914062 C 7.914062 21.511719 8.183594 21.167969 8.496094 20.878906 C 8.808594 20.589844 9.160156 20.367188 9.546875 20.210938 C 9.929688 20.054688 10.34375 19.976562 10.785156 19.976562 C 11.222656 19.976562 11.601562 20.050781 11.929688 20.199219 C 12.253906 20.347656 12.527344 20.550781 12.75 20.808594 C 12.972656 21.066406 13.136719 21.363281 13.246094 21.699219 Z M 24.589844 20.867188 C 24.335938 20.589844 24.027344 20.371094 23.679688 20.230469 C 23.296875 20.074219 22.886719 20 22.472656 20.007812 C 21.882812 20.007812 21.332031 20.136719 20.828125 20.402344 C 20.316406 20.671875 19.867188 21.046875 19.511719 21.503906 C 19.125 22.007812 18.828125 22.578125 18.636719 23.183594 C 18.414062 23.878906 18.308594 24.601562 18.316406 25.328125 C 18.316406 25.816406 18.382812 26.257812 18.523438 26.664062 C 18.664062 27.070312 18.855469 27.417969 19.105469 27.707031 C 19.355469 27.992188 19.652344 28.21875 20.003906 28.378906 C 20.355469 28.539062 20.742188 28.621094 21.171875 28.621094 C 21.769531 28.621094 22.324219 28.480469 22.832031 28.199219 C 23.339844 27.917969 23.789062 27.53125 24.164062 27.042969 C 24.558594 26.527344 24.859375 25.941406 25.050781 25.324219 C 25.265625 24.664062 25.371094 23.953125 25.371094 23.191406 C 25.371094 22.699219 25.304688 22.257812 25.167969 21.863281 C 25.042969 21.496094 24.847656 21.15625 24.589844 20.867188 Z M 50 15.558594 L 45.003906 39.050781 L 22.347656 39.050781 L 23.648438 33.109375 L 0 33.109375 L 4.640625 10.949219 L 32.925781 10.949219 L 31.960938 15.558594 Z M 15.335938 23.011719 C 15.351562 22.332031 15.230469 21.65625 14.984375 21.023438 C 14.769531 20.476562 14.445312 19.980469 14.035156 19.566406 C 13.636719 19.171875 13.160156 18.863281 12.640625 18.660156 C 12.101562 18.453125 11.53125 18.347656 10.953125 18.351562 C 10.121094 18.34375 9.292969 18.519531 8.535156 18.863281 C 7.800781 19.203125 7.152344 19.695312 6.636719 20.3125 C 6.109375 20.9375 5.695312 21.683594 5.398438 22.554688 C 5.097656 23.492188 4.945312 24.472656 4.957031 25.457031 C 4.957031 26.234375 5.082031 26.921875 5.328125 27.519531 C 5.765625 28.660156 6.675781 29.550781 7.824219 29.960938 C 8.390625 30.171875 8.996094 30.277344 9.640625 30.277344 C 10.308594 30.277344 10.921875 30.195312 11.484375 30.039062 C 12.007812 29.894531 12.503906 29.667969 12.957031 29.375 C 13.382812 29.09375 13.734375 28.761719 14.011719 28.375 C 14.28125 28 14.484375 27.582031 14.609375 27.136719 L 12.652344 27.136719 C 12.410156 27.585938 12.042969 27.957031 11.597656 28.203125 C 11.132812 28.464844 10.519531 28.601562 9.757812 28.601562 C 9.40625 28.601562 9.0625 28.542969 8.722656 28.421875 C 8.375 28.300781 8.058594 28.109375 7.796875 27.851562 C 7.503906 27.5625 7.277344 27.214844 7.128906 26.832031 C 6.945312 26.347656 6.859375 25.835938 6.871094 25.320312 C 6.871094 25.21875 6.871094 25.121094 6.878906 25.03125 C 6.882812 24.941406 6.886719 24.84375 6.894531 24.742188 L 15.199219 24.742188 C 15.21875 24.636719 15.238281 24.507812 15.253906 24.355469 L 15.292969 23.882812 C 15.316406 23.59375 15.332031 23.300781 15.335938 23.011719 Z M 25.828125 30.078125 L 29.25 13.980469 L 27.378906 13.980469 L 25.957031 20.679688 L 25.789062 20.679688 C 25.6875 20.339844 25.527344 20.019531 25.3125 19.734375 C 25.09375 19.449219 24.832031 19.199219 24.53125 18.996094 C 24.21875 18.789062 23.875 18.628906 23.515625 18.523438 C 23.132812 18.40625 22.734375 18.351562 22.335938 18.351562 C 21.253906 18.347656 20.199219 18.679688 19.316406 19.300781 C 18.867188 19.617188 18.464844 19.992188 18.117188 20.414062 C 17.757812 20.847656 17.449219 21.335938 17.191406 21.871094 C 16.929688 22.433594 16.730469 23.019531 16.597656 23.625 C 16.460938 24.257812 16.390625 24.917969 16.390625 25.609375 C 16.390625 26.320312 16.5 26.964844 16.722656 27.542969 C 16.941406 28.121094 17.242188 28.613281 17.625 29.019531 C 18.007812 29.425781 18.449219 29.738281 18.957031 29.953125 C 19.460938 30.171875 20.003906 30.28125 20.582031 30.28125 C 21.316406 30.28125 22 30.121094 22.632812 29.804688 C 23.265625 29.488281 23.792969 29.054688 24.214844 28.507812 L 24.386719 28.507812 L 24.054688 30.078125 Z M 38.570312 27.179688 L 46.023438 18.585938 L 41.855469 18.585938 L 37.304688 24.222656 L 37.078125 24.222656 L 34.671875 18.585938 L 30.453125 18.585938 L 34.070312 26.769531 L 26.261719 36.019531 L 30.378906 36.019531 L 35.390625 30.078125 L 35.730469 30.078125 L 38.4375 36.019531 L 42.578125 36.019531 Z M 38.570312 27.179688 "/>
</g>
</svg>
