<?xml version="1.0" encoding="UTF-8"?>
<svg xmlns="http://www.w3.org/2000/svg" xmlns:xlink="http://www.w3.org/1999/xlink" width="100px" height="60px" viewBox="0 0 100 60" version="1.1">
<g id="surface1">
<path style=" stroke:none;fill-rule:nonzero;fill:rgb(30.980393%,14.901961%,51.372552%);fill-opacity:1;" d="M 14.75 11.539062 L 14.75 11.898438 L 15.546875 12.8125 L 15.546875 19.171875 L 14.453125 19.476562 L 14.453125 19.828125 L 17.453125 19.828125 L 17.453125 19.476562 L 16.5 19.21875 L 16.25 18.914062 L 16.25 13.625 L 21.453125 19.929688 L 21.898438 19.929688 L 21.898438 12.359375 L 23 12 L 23 11.640625 L 20 11.640625 L 20 12.054688 L 20.953125 12.304688 L 21.203125 12.609375 L 21.203125 17.640625 L 21.148438 17.640625 L 16.101562 11.539062 Z M 25.898438 19.984375 C 24.453125 19.984375 23.046875 19.015625 23.046875 16.984375 C 23.046875 14.945312 24.546875 13.929688 25.898438 13.929688 C 27.351562 13.929688 28.796875 14.84375 28.796875 16.882812 C 28.75 18.867188 27.25 19.984375 25.898438 19.984375 Z M 27.648438 17.085938 C 27.648438 15.710938 26.898438 14.492188 25.75 14.492188 C 24.703125 14.492188 24.148438 15.40625 24.148438 16.828125 C 24.148438 18.257812 24.796875 19.421875 26.046875 19.421875 C 27.101562 19.421875 27.648438 18.460938 27.648438 17.085938 Z M 43.5 16.476562 C 43.5 15.101562 42.75 14.796875 41.851562 14.796875 C 41.101562 14.796875 40.601562 15.359375 40.601562 15.359375 L 40.601562 18.914062 L 40.851562 19.21875 L 41.648438 19.523438 L 41.648438 19.828125 L 38.796875 19.828125 L 38.796875 19.523438 L 39.601562 19.21875 L 39.601562 13.21875 C 39.601562 12.15625 39.351562 11.84375 38.75 11.84375 L 38.75 11.539062 L 40.546875 10.929688 L 40.648438 10.929688 C 40.648438 10.929688 40.601562 12.203125 40.601562 13.171875 L 40.601562 14.898438 C 40.601562 14.898438 41.75 13.929688 42.601562 13.929688 C 43.601562 13.929688 44.546875 14.335938 44.546875 15.867188 L 44.546875 18.96875 L 44.796875 19.273438 L 45.601562 19.578125 L 45.601562 19.882812 L 42.75 19.882812 L 42.75 19.578125 L 43.546875 19.273438 Z M 55.046875 16.679688 C 55.046875 18.40625 56 19.117188 57.101562 19.117188 C 57.796875 19.117188 58.601562 18.8125 58.601562 18.8125 L 58.703125 19.070312 C 58.398438 19.375 57.601562 19.984375 56.546875 19.984375 C 55.148438 19.984375 53.898438 18.914062 53.898438 16.984375 C 53.898438 15.203125 55.101562 13.929688 56.601562 13.929688 C 57.75 13.929688 58.648438 14.640625 58.648438 15.96875 C 58.648438 16.320312 58.601562 16.625 58.601562 16.625 L 55.046875 16.625 Z M 56.851562 16.171875 C 57.453125 16.171875 57.648438 16.015625 57.648438 15.40625 C 57.648438 14.898438 57.296875 14.492188 56.5 14.492188 C 55.703125 14.492188 55.046875 15.203125 55.046875 16.21875 Z M 60.101562 19.78125 C 60 19.726562 59.796875 19.625 59.796875 19.375 L 59.75 18.203125 L 60.296875 18.203125 C 60.453125 19.015625 61 19.523438 61.703125 19.523438 C 62.398438 19.523438 62.703125 19.171875 62.703125 18.664062 C 62.703125 18.203125 62.296875 17.945312 61.851562 17.695312 L 61.25 17.390625 C 60.351562 16.929688 59.898438 16.578125 59.898438 15.664062 C 59.898438 14.539062 60.703125 13.984375 61.953125 13.984375 C 62.796875 13.984375 63.5 14.335938 63.5 14.335938 L 63.351562 15.8125 L 62.851562 15.8125 C 62.851562 14.898438 62.5 14.59375 61.75 14.59375 C 61.25 14.59375 60.796875 14.796875 60.796875 15.304688 C 60.796875 15.710938 60.953125 15.867188 61.898438 16.375 L 62.453125 16.679688 C 63.453125 17.1875 63.75 17.640625 63.75 18.460938 C 63.75 19.476562 62.75 20.085938 61.75 20.085938 C 61 19.984375 60.453125 19.929688 60.101562 19.78125 Z M 69.703125 16.679688 C 69.703125 18.40625 70.648438 19.117188 71.75 19.117188 C 72.453125 19.117188 73.25 18.8125 73.25 18.8125 L 73.351562 19.070312 C 73.046875 19.375 72.25 19.984375 71.203125 19.984375 C 69.796875 19.984375 68.546875 18.914062 68.546875 16.984375 C 68.546875 15.203125 69.75 13.929688 71.25 13.929688 C 72.398438 13.929688 73.296875 14.640625 73.296875 15.96875 C 73.296875 16.320312 73.25 16.625 73.25 16.625 L 69.703125 16.625 Z M 71.5 16.171875 C 72.101562 16.171875 72.296875 16.015625 72.296875 15.40625 C 72.296875 14.898438 71.953125 14.492188 71.148438 14.492188 C 70.351562 14.492188 69.703125 15.203125 69.703125 16.21875 Z M 84.75 19.273438 L 84.5 18.96875 L 84.5 15.8125 C 84.5 14.335938 83.546875 13.929688 82.601562 13.929688 C 81.796875 13.929688 80.648438 14.898438 80.648438 14.898438 L 80.648438 13.882812 L 80.546875 13.882812 L 78.75 14.539062 L 78.75 14.84375 C 79.453125 14.84375 79.601562 15.460938 79.601562 16.578125 L 79.601562 19.171875 L 78.796875 19.476562 L 78.796875 19.828125 L 81.601562 19.828125 L 81.601562 19.523438 L 80.796875 19.21875 L 80.546875 18.914062 L 80.546875 15.359375 C 80.546875 15.359375 81 14.796875 81.75 14.796875 C 82.546875 14.796875 83.351562 15.101562 83.351562 16.476562 L 83.296875 19.21875 L 82.5 19.523438 L 82.5 19.828125 L 85.296875 19.828125 L 85.296875 19.523438 Z M 50.796875 19.929688 L 49.5 16.21875 L 48 19.929688 L 47.5 19.929688 L 46.046875 15.359375 C 45.851562 14.796875 45.703125 14.4375 45.351562 14.4375 L 45.351562 14.085938 L 47.75 14.085938 L 47.75 14.4375 L 47 14.695312 L 48.101562 18.460938 L 49.046875 16.117188 L 49.25 15.507812 L 48.898438 14.539062 L 48.5 14.4375 L 48.5 14.085938 L 50.851562 14.085938 L 50.851562 14.4375 L 50.101562 14.640625 L 51.351562 18.40625 L 52.648438 14.640625 L 51.796875 14.335938 L 51.796875 14.03125 L 54 14.03125 L 54 14.390625 C 53.5 14.4375 53.25 14.59375 52.851562 15.609375 L 51.398438 19.882812 Z M 38.101562 19.015625 C 38.101562 19.015625 37.75 19.21875 37.25 19.21875 C 36.703125 19.21875 36.203125 18.914062 36.203125 18.15625 L 36.25 14.898438 L 38.046875 14.898438 L 38.046875 14.695312 L 38.148438 13.679688 L 38 13.625 L 37.851562 14.03125 L 37.75 14.132812 L 36.296875 14.1875 L 36.296875 12.710938 L 35.601562 12.8125 L 35.296875 14.234375 L 34.296875 14.335938 L 34.296875 14.84375 C 34.851562 14.84375 35.296875 14.898438 35.296875 15.40625 C 35.296875 15.914062 35.25 17.640625 35.25 18.304688 C 35.25 19.578125 35.75 20.03125 36.5 20.03125 C 37.203125 20.03125 37.75 19.726562 38.25 19.320312 Z M 68.046875 19.015625 C 68.046875 19.015625 67.703125 19.21875 67.203125 19.21875 C 66.648438 19.21875 66.148438 18.914062 66.148438 18.15625 L 66.203125 14.898438 L 68 14.898438 L 68 14.695312 L 68.101562 13.679688 L 67.851562 13.625 L 67.648438 14.03125 L 67.546875 14.132812 L 66.101562 14.1875 L 66.101562 12.710938 L 65.398438 12.8125 L 65.101562 14.234375 L 64.101562 14.335938 L 64.101562 14.84375 C 64.648438 14.84375 65.101562 14.898438 65.101562 15.40625 C 65.101562 15.914062 65.046875 17.640625 65.046875 18.304688 C 65.046875 19.578125 65.546875 20.03125 66.296875 20.03125 C 67 20.03125 67.546875 19.726562 68.046875 19.320312 Z M 33.546875 14.03125 C 33.546875 14.03125 33.351562 13.984375 32.953125 13.984375 C 32.101562 13.984375 31.203125 15.359375 31.203125 15.359375 L 31.203125 13.929688 L 31.101562 13.929688 L 29.351562 14.59375 L 29.351562 14.898438 C 30 14.898438 30.203125 15.507812 30.203125 16.523438 L 30.203125 19.21875 L 29.398438 19.523438 L 29.398438 19.828125 L 32.203125 19.828125 L 32.203125 19.523438 L 31.398438 19.21875 L 31.148438 18.914062 L 31.148438 16.273438 C 31.148438 15.460938 31.796875 15 32.453125 15 C 32.601562 15 32.75 15.054688 32.851562 15.101562 L 33.046875 15.40625 L 33.296875 15.40625 Z M 78.25 14.03125 C 78.25 14.03125 78.046875 13.984375 77.648438 13.984375 C 76.796875 13.984375 75.898438 15.359375 75.898438 15.359375 L 75.898438 13.929688 L 75.796875 13.929688 L 74.046875 14.59375 L 74.046875 14.898438 C 74.703125 14.898438 74.898438 15.507812 74.898438 16.523438 L 74.898438 19.21875 L 74.101562 19.523438 L 74.101562 19.828125 L 76.898438 19.828125 L 76.898438 19.523438 L 76.101562 19.21875 L 75.851562 18.914062 L 75.851562 16.273438 C 75.851562 15.460938 76.5 15 77.148438 15 C 77.296875 15 77.453125 15.054688 77.546875 15.101562 L 77.75 15.40625 L 78 15.40625 Z M 14.453125 22.679688 L 85.5 22.679688 L 85.5 23.085938 L 14.453125 23.085938 Z M 14.453125 22.679688 "/>
<path style=" stroke:none;fill-rule:nonzero;fill:rgb(30.980393%,14.901961%,51.372552%);fill-opacity:1;" d="M 24.351562 33.765625 C 24.203125 33.867188 23.851562 34.21875 23.851562 34.476562 C 23.851562 34.679688 24.046875 34.984375 24.398438 35.4375 L 28.898438 41.640625 C 30.75 44.1875 31.796875 43.523438 31.796875 44.132812 C 31.796875 44.289062 31.796875 44.4375 31.5 44.4375 C 31 44.4375 30.351562 44.335938 29.75 44.335938 C 29.296875 44.335938 28.851562 44.4375 28.148438 44.4375 C 27.703125 44.4375 27.453125 44.390625 27 43.726562 L 22.296875 37.171875 C 22 36.765625 21.851562 36.507812 21.703125 36.507812 C 21.5 36.507812 21.101562 36.914062 20.601562 37.523438 C 20.25 37.929688 20.296875 38.132812 20.296875 38.695312 L 20.296875 41.84375 C 20.296875 44.085938 22.601562 43.273438 22.601562 44.132812 C 22.601562 44.335938 22.5 44.4375 21.953125 44.4375 C 21.296875 44.4375 20.648438 44.335938 19.351562 44.335938 C 18.203125 44.335938 17 44.4375 16.25 44.4375 C 15.796875 44.4375 15.5 44.4375 15.5 44.234375 C 15.5 43.015625 17.398438 44.59375 17.398438 40.984375 L 17.398438 30.507812 C 17.398438 27.609375 14.898438 28.828125 14.898438 27.765625 C 14.898438 27.507812 15.101562 27.40625 15.398438 27.40625 C 15.851562 27.40625 16.648438 27.507812 18.25 27.507812 C 19.546875 27.507812 21.046875 27.40625 21.546875 27.40625 C 21.75 27.40625 22.046875 27.40625 22.046875 27.710938 C 22.046875 28.679688 20.351562 27.359375 20.351562 30 L 20.351562 35.492188 C 20.351562 35.742188 20.351562 36.054688 20.453125 36.054688 C 20.601562 36.054688 20.75 35.945312 21.046875 35.640625 L 24.148438 32.539062 C 24.796875 31.882812 27.101562 29.945312 27.101562 28.828125 C 27.101562 28.070312 25.648438 28.421875 25.648438 27.867188 C 25.648438 27.460938 25.898438 27.40625 26.203125 27.40625 C 26.453125 27.40625 28.046875 27.507812 28.75 27.507812 C 29.351562 27.507812 29.953125 27.40625 30.953125 27.40625 C 31.148438 27.40625 31.546875 27.40625 31.546875 27.8125 C 31.546875 28.476562 30.796875 27.765625 28.5 29.84375 Z M 24.351562 33.765625 "/>
<path style=" stroke:none;fill-rule:nonzero;fill:rgb(30.980393%,14.901961%,51.372552%);fill-opacity:1;" d="M 34.203125 38.390625 C 33.75 38.390625 33.703125 38.234375 33.703125 39 C 33.703125 41.085938 35.148438 42.96875 37.203125 42.96875 C 38.601562 42.96875 39.75 41.695312 40.148438 41.695312 C 40.25 41.695312 40.398438 41.742188 40.398438 42 C 40.398438 42.609375 38.398438 44.492188 36 44.492188 C 33.648438 44.492188 31.351562 42.96875 31.351562 39.664062 C 31.351562 36.914062 32.898438 33.914062 35.953125 33.914062 C 39.101562 33.914062 40.398438 36.664062 40.398438 37.882812 C 40.398438 38.390625 40.25 38.390625 40.101562 38.390625 Z M 37.203125 37.523438 C 37.601562 37.523438 37.75 37.523438 37.75 36.867188 C 37.75 35.945312 37.101562 34.523438 35.601562 34.523438 C 34.203125 34.523438 33.648438 35.945312 33.648438 37.070312 C 33.648438 37.476562 33.703125 37.523438 33.75 37.523438 Z M 42.5 29.539062 C 42.5 28.117188 40.953125 28.882812 40.953125 28.21875 C 40.953125 27.8125 41.296875 27.914062 42.796875 27.359375 C 44.601562 26.84375 44.546875 26.390625 44.953125 26.390625 C 45.25 26.390625 45 27.054688 45 28.421875 L 45 42.203125 C 45 43.929688 46.75 43.578125 46.75 44.085938 C 46.75 44.335938 46.648438 44.390625 46.25 44.390625 C 45.796875 44.390625 44.296875 44.289062 43.601562 44.289062 C 43.046875 44.289062 42 44.390625 41.5 44.390625 C 41.296875 44.390625 41.101562 44.390625 41.101562 44.132812 C 41.101562 43.375 42.5 44.335938 42.5 42.101562 Z M 49 29.539062 C 49 28.117188 47.453125 28.882812 47.453125 28.21875 C 47.453125 27.8125 47.796875 27.914062 49.296875 27.359375 C 51.101562 26.84375 51.046875 26.390625 51.453125 26.390625 C 51.75 26.390625 51.5 27.054688 51.5 28.421875 L 51.5 42.203125 C 51.5 43.929688 53.25 43.578125 53.25 44.085938 C 53.25 44.335938 53.148438 44.390625 52.75 44.390625 C 52.296875 44.390625 50.796875 44.289062 50.101562 44.289062 C 49.546875 44.289062 48.5 44.390625 48 44.390625 C 47.796875 44.390625 47.601562 44.390625 47.601562 44.132812 C 47.601562 43.375 49 44.335938 49 42.101562 Z M 58.453125 44.4375 C 55.601562 44.4375 53.351562 42.40625 53.351562 39.460938 C 53.351562 36.304688 55.546875 33.867188 58.703125 33.867188 C 61.648438 33.867188 63.898438 35.84375 63.898438 38.898438 C 63.953125 42.15625 61.703125 44.4375 58.453125 44.4375 Z M 55.898438 38.085938 C 55.851562 39.664062 56.601562 43.578125 59.203125 43.578125 C 61.046875 43.578125 61.601562 42.203125 61.601562 40.523438 C 61.601562 38.59375 60.898438 34.578125 58.351562 34.578125 C 56.296875 34.625 55.953125 36.359375 55.898438 38.085938 Z M 64.898438 46.929688 C 64.898438 45.507812 66.453125 45.054688 66.648438 45.054688 C 66.398438 44.84375 65.648438 44.289062 65.648438 42.8125 C 65.648438 41.84375 66.101562 41.085938 66.898438 40.523438 C 65.601562 39.710938 64.953125 39.101562 64.953125 37.476562 C 64.953125 35.1875 66.851562 33.867188 69.203125 33.867188 C 70.851562 33.867188 71.75 34.726562 72.546875 34.726562 C 73.953125 34.726562 73.898438 33.203125 74.25 33.203125 C 74.453125 33.203125 74.5 33.40625 74.5 33.867188 C 74.5 36.15625 73.851562 36.203125 73.453125 36.460938 L 73.453125 37.171875 C 73.5 38.695312 72.601562 40.929688 69.101562 40.929688 C 68.75 40.929688 68.351562 40.882812 67.898438 40.882812 C 67.203125 40.882812 66.898438 41.335938 66.898438 41.945312 C 66.898438 42.867188 67.046875 43.015625 70.5 43.015625 C 73.796875 43.015625 74.5 44.03125 74.5 45.507812 C 74.5 46.929688 73.546875 48.054688 72.296875 48.507812 C 70.898438 49.070312 70.148438 49.117188 68.648438 49.117188 C 67.703125 49.070312 64.898438 48.8125 64.898438 46.929688 Z M 67.75 45.304688 C 67.101562 45.304688 66.796875 45.914062 66.796875 46.523438 C 66.796875 48.101562 68.351562 48.359375 69.453125 48.359375 C 70.703125 48.359375 72.648438 48.101562 72.648438 46.476562 C 72.648438 45.304688 71.851562 45.304688 67.75 45.304688 Z M 69.101562 34.578125 C 68.648438 34.578125 67.25 34.78125 67.25 37.375 C 67.25 38.59375 67.75 40.273438 69.203125 40.273438 C 70.703125 40.273438 71.148438 38.898438 71.148438 37.578125 C 71.148438 36.203125 70.703125 34.578125 69.101562 34.578125 Z M 75.351562 46.929688 C 75.351562 45.507812 76.898438 45.054688 77.101562 45.054688 C 76.851562 44.84375 76.101562 44.289062 76.101562 42.867188 C 76.101562 41.898438 76.546875 41.132812 77.351562 40.578125 C 76.046875 39.765625 75.398438 39.15625 75.398438 37.523438 C 75.398438 35.234375 77.296875 33.914062 79.648438 33.914062 C 81.296875 33.914062 82.203125 34.78125 83 34.78125 C 84.398438 34.78125 84.351562 33.257812 84.703125 33.257812 C 84.898438 33.257812 84.953125 33.460938 84.953125 33.914062 C 84.953125 36.203125 84.296875 36.257812 83.898438 36.507812 L 83.898438 37.21875 C 83.953125 38.742188 83.046875 40.984375 79.546875 40.984375 C 79.203125 40.984375 78.796875 40.929688 78.351562 40.929688 C 77.648438 40.929688 77.351562 41.390625 77.351562 42 C 77.351562 42.914062 77.5 43.070312 80.953125 43.070312 C 84.25 43.070312 84.953125 44.085938 84.953125 45.5625 C 84.953125 46.984375 84 48.101562 82.75 48.5625 C 81.351562 49.117188 80.601562 49.171875 79.101562 49.171875 C 78.203125 49.070312 75.351562 48.867188 75.351562 46.929688 Z M 78.25 45.304688 C 77.601562 45.304688 77.296875 45.914062 77.296875 46.523438 C 77.296875 48.101562 78.851562 48.359375 79.953125 48.359375 C 81.203125 48.359375 83.148438 48.101562 83.148438 46.476562 C 83.101562 45.359375 82.296875 45.304688 78.25 45.304688 Z M 79.601562 34.578125 C 79.148438 34.578125 77.75 34.78125 77.75 37.375 C 77.75 38.59375 78.25 40.273438 79.703125 40.273438 C 81.203125 40.273438 81.648438 38.898438 81.648438 37.578125 C 81.601562 36.203125 81.148438 34.578125 79.601562 34.578125 Z M 79.601562 34.578125 "/>
</g>
</svg>
