<?xml version="1.0" encoding="UTF-8"?>
<svg xmlns="http://www.w3.org/2000/svg" xmlns:xlink="http://www.w3.org/1999/xlink" width="50px" height="30px" viewBox="0 0 50 30" version="1.1">
<g id="surface1">
<path style=" stroke:none;fill-rule:nonzero;fill:rgb(30.980393%,14.901961%,51.372552%);fill-opacity:1;" d="M 7.375 5.769531 L 7.375 5.949219 L 7.773438 6.40625 L 7.773438 9.585938 L 7.226562 9.738281 L 7.226562 9.914062 L 8.726562 9.914062 L 8.726562 9.738281 L 8.25 9.609375 L 8.125 9.457031 L 8.125 6.8125 L 10.726562 9.964844 L 10.949219 9.964844 L 10.949219 6.179688 L 11.5 6 L 11.5 5.820312 L 10 5.820312 L 10 6.027344 L 10.476562 6.152344 L 10.601562 6.304688 L 10.601562 8.820312 L 10.574219 8.820312 L 8.050781 5.769531 Z M 12.949219 9.992188 C 12.226562 9.992188 11.523438 9.507812 11.523438 8.492188 C 11.523438 7.472656 12.273438 6.964844 12.949219 6.964844 C 13.675781 6.964844 14.398438 7.421875 14.398438 8.441406 C 14.375 9.433594 13.625 9.992188 12.949219 9.992188 Z M 13.824219 8.542969 C 13.824219 7.855469 13.449219 7.246094 12.875 7.246094 C 12.351562 7.246094 12.074219 7.703125 12.074219 8.414062 C 12.074219 9.128906 12.398438 9.710938 13.023438 9.710938 C 13.550781 9.710938 13.824219 9.230469 13.824219 8.542969 Z M 21.75 8.238281 C 21.75 7.550781 21.375 7.398438 20.925781 7.398438 C 20.550781 7.398438 20.300781 7.679688 20.300781 7.679688 L 20.300781 9.457031 L 20.425781 9.609375 L 20.824219 9.761719 L 20.824219 9.914062 L 19.398438 9.914062 L 19.398438 9.761719 L 19.800781 9.609375 L 19.800781 6.609375 C 19.800781 6.078125 19.675781 5.921875 19.375 5.921875 L 19.375 5.769531 L 20.273438 5.464844 L 20.324219 5.464844 C 20.324219 5.464844 20.300781 6.101562 20.300781 6.585938 L 20.300781 7.449219 C 20.300781 7.449219 20.875 6.964844 21.300781 6.964844 C 21.800781 6.964844 22.273438 7.167969 22.273438 7.933594 L 22.273438 9.484375 L 22.398438 9.636719 L 22.800781 9.789062 L 22.800781 9.941406 L 21.375 9.941406 L 21.375 9.789062 L 21.773438 9.636719 Z M 27.523438 8.339844 C 27.523438 9.203125 28 9.558594 28.550781 9.558594 C 28.898438 9.558594 29.300781 9.40625 29.300781 9.40625 L 29.351562 9.535156 C 29.199219 9.6875 28.800781 9.992188 28.273438 9.992188 C 27.574219 9.992188 26.949219 9.457031 26.949219 8.492188 C 26.949219 7.601562 27.550781 6.964844 28.300781 6.964844 C 28.875 6.964844 29.324219 7.320312 29.324219 7.984375 C 29.324219 8.160156 29.300781 8.3125 29.300781 8.3125 L 27.523438 8.3125 Z M 28.425781 8.085938 C 28.726562 8.085938 28.824219 8.007812 28.824219 7.703125 C 28.824219 7.449219 28.648438 7.246094 28.25 7.246094 C 27.851562 7.246094 27.523438 7.601562 27.523438 8.109375 Z M 30.050781 9.890625 C 30 9.863281 29.898438 9.8125 29.898438 9.6875 L 29.875 9.101562 L 30.148438 9.101562 C 30.226562 9.507812 30.5 9.761719 30.851562 9.761719 C 31.199219 9.761719 31.351562 9.585938 31.351562 9.332031 C 31.351562 9.101562 31.148438 8.972656 30.925781 8.847656 L 30.625 8.695312 C 30.175781 8.464844 29.949219 8.289062 29.949219 7.832031 C 29.949219 7.269531 30.351562 6.992188 30.976562 6.992188 C 31.398438 6.992188 31.75 7.167969 31.75 7.167969 L 31.675781 7.90625 L 31.425781 7.90625 C 31.425781 7.449219 31.25 7.296875 30.875 7.296875 C 30.625 7.296875 30.398438 7.398438 30.398438 7.652344 C 30.398438 7.855469 30.476562 7.933594 30.949219 8.1875 L 31.226562 8.339844 C 31.726562 8.59375 31.875 8.820312 31.875 9.230469 C 31.875 9.738281 31.375 10.042969 30.875 10.042969 C 30.5 9.992188 30.226562 9.964844 30.050781 9.890625 Z M 34.851562 8.339844 C 34.851562 9.203125 35.324219 9.558594 35.875 9.558594 C 36.226562 9.558594 36.625 9.40625 36.625 9.40625 L 36.675781 9.535156 C 36.523438 9.6875 36.125 9.992188 35.601562 9.992188 C 34.898438 9.992188 34.273438 9.457031 34.273438 8.492188 C 34.273438 7.601562 34.875 6.964844 35.625 6.964844 C 36.199219 6.964844 36.648438 7.320312 36.648438 7.984375 C 36.648438 8.160156 36.625 8.3125 36.625 8.3125 L 34.851562 8.3125 Z M 35.75 8.085938 C 36.050781 8.085938 36.148438 8.007812 36.148438 7.703125 C 36.148438 7.449219 35.976562 7.246094 35.574219 7.246094 C 35.175781 7.246094 34.851562 7.601562 34.851562 8.109375 Z M 42.375 9.636719 L 42.25 9.484375 L 42.25 7.90625 C 42.25 7.167969 41.773438 6.964844 41.300781 6.964844 C 40.898438 6.964844 40.324219 7.449219 40.324219 7.449219 L 40.324219 6.941406 L 40.273438 6.941406 L 39.375 7.269531 L 39.375 7.421875 C 39.726562 7.421875 39.800781 7.730469 39.800781 8.289062 L 39.800781 9.585938 L 39.398438 9.738281 L 39.398438 9.914062 L 40.800781 9.914062 L 40.800781 9.761719 L 40.398438 9.609375 L 40.273438 9.457031 L 40.273438 7.679688 C 40.273438 7.679688 40.5 7.398438 40.875 7.398438 C 41.273438 7.398438 41.675781 7.550781 41.675781 8.238281 L 41.648438 9.609375 L 41.25 9.761719 L 41.25 9.914062 L 42.648438 9.914062 L 42.648438 9.761719 Z M 25.398438 9.964844 L 24.75 8.109375 L 24 9.964844 L 23.75 9.964844 L 23.023438 7.679688 C 22.925781 7.398438 22.851562 7.21875 22.675781 7.21875 L 22.675781 7.042969 L 23.875 7.042969 L 23.875 7.21875 L 23.5 7.347656 L 24.050781 9.230469 L 24.523438 8.058594 L 24.625 7.753906 L 24.449219 7.269531 L 24.25 7.21875 L 24.25 7.042969 L 25.425781 7.042969 L 25.425781 7.21875 L 25.050781 7.320312 L 25.675781 9.203125 L 26.324219 7.320312 L 25.898438 7.167969 L 25.898438 7.015625 L 27 7.015625 L 27 7.195312 C 26.75 7.21875 26.625 7.296875 26.425781 7.804688 L 25.699219 9.941406 Z M 19.050781 9.507812 C 19.050781 9.507812 18.875 9.609375 18.625 9.609375 C 18.351562 9.609375 18.101562 9.457031 18.101562 9.078125 L 18.125 7.449219 L 19.023438 7.449219 L 19.023438 7.347656 L 19.074219 6.839844 L 19 6.8125 L 18.925781 7.015625 L 18.875 7.066406 L 18.148438 7.09375 L 18.148438 6.355469 L 17.800781 6.40625 L 17.648438 7.117188 L 17.148438 7.167969 L 17.148438 7.421875 C 17.425781 7.421875 17.648438 7.449219 17.648438 7.703125 C 17.648438 7.957031 17.625 8.820312 17.625 9.152344 C 17.625 9.789062 17.875 10.015625 18.25 10.015625 C 18.601562 10.015625 18.875 9.863281 19.125 9.660156 Z M 34.023438 9.507812 C 34.023438 9.507812 33.851562 9.609375 33.601562 9.609375 C 33.324219 9.609375 33.074219 9.457031 33.074219 9.078125 L 33.101562 7.449219 L 34 7.449219 L 34 7.347656 L 34.050781 6.839844 L 33.925781 6.8125 L 33.824219 7.015625 L 33.773438 7.066406 L 33.050781 7.09375 L 33.050781 6.355469 L 32.699219 6.40625 L 32.550781 7.117188 L 32.050781 7.167969 L 32.050781 7.421875 C 32.324219 7.421875 32.550781 7.449219 32.550781 7.703125 C 32.550781 7.957031 32.523438 8.820312 32.523438 9.152344 C 32.523438 9.789062 32.773438 10.015625 33.148438 10.015625 C 33.5 10.015625 33.773438 9.863281 34.023438 9.660156 Z M 16.773438 7.015625 C 16.773438 7.015625 16.675781 6.992188 16.476562 6.992188 C 16.050781 6.992188 15.601562 7.679688 15.601562 7.679688 L 15.601562 6.964844 L 15.550781 6.964844 L 14.675781 7.296875 L 14.675781 7.449219 C 15 7.449219 15.101562 7.753906 15.101562 8.261719 L 15.101562 9.609375 L 14.699219 9.761719 L 14.699219 9.914062 L 16.101562 9.914062 L 16.101562 9.761719 L 15.699219 9.609375 L 15.574219 9.457031 L 15.574219 8.136719 C 15.574219 7.730469 15.898438 7.5 16.226562 7.5 C 16.300781 7.5 16.375 7.527344 16.425781 7.550781 L 16.523438 7.703125 L 16.648438 7.703125 Z M 39.125 7.015625 C 39.125 7.015625 39.023438 6.992188 38.824219 6.992188 C 38.398438 6.992188 37.949219 7.679688 37.949219 7.679688 L 37.949219 6.964844 L 37.898438 6.964844 L 37.023438 7.296875 L 37.023438 7.449219 C 37.351562 7.449219 37.449219 7.753906 37.449219 8.261719 L 37.449219 9.609375 L 37.050781 9.761719 L 37.050781 9.914062 L 38.449219 9.914062 L 38.449219 9.761719 L 38.050781 9.609375 L 37.925781 9.457031 L 37.925781 8.136719 C 37.925781 7.730469 38.25 7.5 38.574219 7.5 C 38.648438 7.5 38.726562 7.527344 38.773438 7.550781 L 38.875 7.703125 L 39 7.703125 Z M 7.226562 11.339844 L 42.75 11.339844 L 42.75 11.542969 L 7.226562 11.542969 Z M 7.226562 11.339844 "/>
<path style=" stroke:none;fill-rule:nonzero;fill:rgb(30.980393%,14.901961%,51.372552%);fill-opacity:1;" d="M 12.175781 16.882812 C 12.101562 16.933594 11.925781 17.109375 11.925781 17.238281 C 11.925781 17.339844 12.023438 17.492188 12.199219 17.71875 L 14.449219 20.820312 C 15.375 22.09375 15.898438 21.761719 15.898438 22.066406 C 15.898438 22.144531 15.898438 22.21875 15.75 22.21875 C 15.5 22.21875 15.175781 22.167969 14.875 22.167969 C 14.648438 22.167969 14.425781 22.21875 14.074219 22.21875 C 13.851562 22.21875 13.726562 22.195312 13.5 21.863281 L 11.148438 18.585938 C 11 18.382812 10.925781 18.253906 10.851562 18.253906 C 10.75 18.253906 10.550781 18.457031 10.300781 18.761719 C 10.125 18.964844 10.148438 19.066406 10.148438 19.347656 L 10.148438 20.921875 C 10.148438 22.042969 11.300781 21.636719 11.300781 22.066406 C 11.300781 22.167969 11.25 22.21875 10.976562 22.21875 C 10.648438 22.21875 10.324219 22.167969 9.675781 22.167969 C 9.101562 22.167969 8.5 22.21875 8.125 22.21875 C 7.898438 22.21875 7.75 22.21875 7.75 22.117188 C 7.75 21.507812 8.699219 22.296875 8.699219 20.492188 L 8.699219 15.253906 C 8.699219 13.804688 7.449219 14.414062 7.449219 13.882812 C 7.449219 13.753906 7.550781 13.703125 7.699219 13.703125 C 7.925781 13.703125 8.324219 13.753906 9.125 13.753906 C 9.773438 13.753906 10.523438 13.703125 10.773438 13.703125 C 10.875 13.703125 11.023438 13.703125 11.023438 13.855469 C 11.023438 14.339844 10.175781 13.679688 10.175781 15 L 10.175781 17.746094 C 10.175781 17.871094 10.175781 18.027344 10.226562 18.027344 C 10.300781 18.027344 10.375 17.972656 10.523438 17.820312 L 12.074219 16.269531 C 12.398438 15.941406 13.550781 14.972656 13.550781 14.414062 C 13.550781 14.035156 12.824219 14.210938 12.824219 13.933594 C 12.824219 13.730469 12.949219 13.703125 13.101562 13.703125 C 13.226562 13.703125 14.023438 13.753906 14.375 13.753906 C 14.675781 13.753906 14.976562 13.703125 15.476562 13.703125 C 15.574219 13.703125 15.773438 13.703125 15.773438 13.90625 C 15.773438 14.238281 15.398438 13.882812 14.25 14.921875 Z M 12.175781 16.882812 "/>
<path style=" stroke:none;fill-rule:nonzero;fill:rgb(30.980393%,14.901961%,51.372552%);fill-opacity:1;" d="M 17.101562 19.195312 C 16.875 19.195312 16.851562 19.117188 16.851562 19.5 C 16.851562 20.542969 17.574219 21.484375 18.601562 21.484375 C 19.300781 21.484375 19.875 20.847656 20.074219 20.847656 C 20.125 20.847656 20.199219 20.871094 20.199219 21 C 20.199219 21.304688 19.199219 22.246094 18 22.246094 C 16.824219 22.246094 15.675781 21.484375 15.675781 19.832031 C 15.675781 18.457031 16.449219 16.957031 17.976562 16.957031 C 19.550781 16.957031 20.199219 18.332031 20.199219 18.941406 C 20.199219 19.195312 20.125 19.195312 20.050781 19.195312 Z M 18.601562 18.761719 C 18.800781 18.761719 18.875 18.761719 18.875 18.433594 C 18.875 17.972656 18.550781 17.261719 17.800781 17.261719 C 17.101562 17.261719 16.824219 17.972656 16.824219 18.535156 C 16.824219 18.738281 16.851562 18.761719 16.875 18.761719 Z M 21.25 14.769531 C 21.25 14.058594 20.476562 14.441406 20.476562 14.109375 C 20.476562 13.90625 20.648438 13.957031 21.398438 13.679688 C 22.300781 13.421875 22.273438 13.195312 22.476562 13.195312 C 22.625 13.195312 22.5 13.527344 22.5 14.210938 L 22.5 21.101562 C 22.5 21.964844 23.375 21.789062 23.375 22.042969 C 23.375 22.167969 23.324219 22.195312 23.125 22.195312 C 22.898438 22.195312 22.148438 22.144531 21.800781 22.144531 C 21.523438 22.144531 21 22.195312 20.75 22.195312 C 20.648438 22.195312 20.550781 22.195312 20.550781 22.066406 C 20.550781 21.6875 21.25 22.167969 21.25 21.050781 Z M 24.5 14.769531 C 24.5 14.058594 23.726562 14.441406 23.726562 14.109375 C 23.726562 13.90625 23.898438 13.957031 24.648438 13.679688 C 25.550781 13.421875 25.523438 13.195312 25.726562 13.195312 C 25.875 13.195312 25.75 13.527344 25.75 14.210938 L 25.75 21.101562 C 25.75 21.964844 26.625 21.789062 26.625 22.042969 C 26.625 22.167969 26.574219 22.195312 26.375 22.195312 C 26.148438 22.195312 25.398438 22.144531 25.050781 22.144531 C 24.773438 22.144531 24.25 22.195312 24 22.195312 C 23.898438 22.195312 23.800781 22.195312 23.800781 22.066406 C 23.800781 21.6875 24.5 22.167969 24.5 21.050781 Z M 29.226562 22.21875 C 27.800781 22.21875 26.675781 21.203125 26.675781 19.730469 C 26.675781 18.152344 27.773438 16.933594 29.351562 16.933594 C 30.824219 16.933594 31.949219 17.921875 31.949219 19.449219 C 31.976562 21.078125 30.851562 22.21875 29.226562 22.21875 Z M 27.949219 19.042969 C 27.925781 19.832031 28.300781 21.789062 29.601562 21.789062 C 30.523438 21.789062 30.800781 21.101562 30.800781 20.261719 C 30.800781 19.296875 30.449219 17.289062 29.175781 17.289062 C 28.148438 17.3125 27.976562 18.179688 27.949219 19.042969 Z M 32.449219 23.464844 C 32.449219 22.753906 33.226562 22.527344 33.324219 22.527344 C 33.199219 22.421875 32.824219 22.144531 32.824219 21.40625 C 32.824219 20.921875 33.050781 20.542969 33.449219 20.261719 C 32.800781 19.855469 32.476562 19.550781 32.476562 18.738281 C 32.476562 17.59375 33.425781 16.933594 34.601562 16.933594 C 35.425781 16.933594 35.875 17.363281 36.273438 17.363281 C 36.976562 17.363281 36.949219 16.601562 37.125 16.601562 C 37.226562 16.601562 37.25 16.703125 37.25 16.933594 C 37.25 18.078125 36.925781 18.101562 36.726562 18.230469 L 36.726562 18.585938 C 36.75 19.347656 36.300781 20.464844 34.550781 20.464844 C 34.375 20.464844 34.175781 20.441406 33.949219 20.441406 C 33.601562 20.441406 33.449219 20.667969 33.449219 20.972656 C 33.449219 21.433594 33.523438 21.507812 35.25 21.507812 C 36.898438 21.507812 37.25 22.015625 37.25 22.753906 C 37.25 23.464844 36.773438 24.027344 36.148438 24.253906 C 35.449219 24.535156 35.074219 24.558594 34.324219 24.558594 C 33.851562 24.535156 32.449219 24.40625 32.449219 23.464844 Z M 33.875 22.652344 C 33.550781 22.652344 33.398438 22.957031 33.398438 23.261719 C 33.398438 24.050781 34.175781 24.179688 34.726562 24.179688 C 35.351562 24.179688 36.324219 24.050781 36.324219 23.238281 C 36.324219 22.652344 35.925781 22.652344 33.875 22.652344 Z M 34.550781 17.289062 C 34.324219 17.289062 33.625 17.390625 33.625 18.6875 C 33.625 19.296875 33.875 20.136719 34.601562 20.136719 C 35.351562 20.136719 35.574219 19.449219 35.574219 18.789062 C 35.574219 18.101562 35.351562 17.289062 34.550781 17.289062 Z M 37.675781 23.464844 C 37.675781 22.753906 38.449219 22.527344 38.550781 22.527344 C 38.425781 22.421875 38.050781 22.144531 38.050781 21.433594 C 38.050781 20.949219 38.273438 20.566406 38.675781 20.289062 C 38.023438 19.882812 37.699219 19.578125 37.699219 18.761719 C 37.699219 17.617188 38.648438 16.957031 39.824219 16.957031 C 40.648438 16.957031 41.101562 17.390625 41.5 17.390625 C 42.199219 17.390625 42.175781 16.628906 42.351562 16.628906 C 42.449219 16.628906 42.476562 16.730469 42.476562 16.957031 C 42.476562 18.101562 42.148438 18.128906 41.949219 18.253906 L 41.949219 18.609375 C 41.976562 19.371094 41.523438 20.492188 39.773438 20.492188 C 39.601562 20.492188 39.398438 20.464844 39.175781 20.464844 C 38.824219 20.464844 38.675781 20.695312 38.675781 21 C 38.675781 21.457031 38.75 21.535156 40.476562 21.535156 C 42.125 21.535156 42.476562 22.042969 42.476562 22.78125 C 42.476562 23.492188 42 24.050781 41.375 24.28125 C 40.675781 24.558594 40.300781 24.585938 39.550781 24.585938 C 39.101562 24.535156 37.675781 24.433594 37.675781 23.464844 Z M 39.125 22.652344 C 38.800781 22.652344 38.648438 22.957031 38.648438 23.261719 C 38.648438 24.050781 39.425781 24.179688 39.976562 24.179688 C 40.601562 24.179688 41.574219 24.050781 41.574219 23.238281 C 41.550781 22.679688 41.148438 22.652344 39.125 22.652344 Z M 39.800781 17.289062 C 39.574219 17.289062 38.875 17.390625 38.875 18.6875 C 38.875 19.296875 39.125 20.136719 39.851562 20.136719 C 40.601562 20.136719 40.824219 19.449219 40.824219 18.789062 C 40.800781 18.101562 40.574219 17.289062 39.800781 17.289062 Z M 39.800781 17.289062 "/>
</g>
</svg>
