<?xml version="1.0" encoding="UTF-8"?>
<svg xmlns="http://www.w3.org/2000/svg" xmlns:xlink="http://www.w3.org/1999/xlink" width="50px" height="44px" viewBox="0 0 50 44" version="1.1">
<g id="surface1">
<path style=" stroke:none;fill-rule:nonzero;fill:rgb(1.960784%,21.176471%,44.313726%);fill-opacity:1;" d="M 0.300781 0.40625 C 1.914062 0.402344 3.527344 0.402344 5.140625 0.398438 C 5.890625 0.398438 6.636719 0.398438 7.386719 0.398438 C 9.183594 0.394531 10.980469 0.394531 12.773438 0.402344 C 13.261719 0.40625 13.746094 0.40625 14.230469 0.40625 C 14.878906 0.40625 15.53125 0.410156 16.179688 0.414062 C 16.421875 0.417969 16.660156 0.417969 16.898438 0.417969 C 17.226562 0.417969 17.554688 0.421875 17.878906 0.425781 C 17.976562 0.421875 18.070312 0.421875 18.167969 0.421875 C 18.636719 0.433594 18.917969 0.464844 19.265625 0.800781 C 19.5 1.113281 19.5 1.113281 19.5 1.316406 C 19.566406 1.316406 19.632812 1.316406 19.699219 1.316406 C 19.84375 1.464844 19.84375 1.464844 20.011719 1.667969 C 20.386719 2.113281 20.785156 2.523438 21.199219 2.933594 C 21.3125 2.820312 21.425781 2.703125 21.539062 2.589844 C 21.652344 2.472656 21.769531 2.359375 21.886719 2.242188 C 22.429688 1.699219 22.976562 1.152344 23.398438 0.503906 C 23.675781 0.464844 23.675781 0.464844 24.035156 0.460938 C 24.101562 0.460938 24.167969 0.460938 24.234375 0.457031 C 24.457031 0.457031 24.683594 0.453125 24.90625 0.453125 C 25.066406 0.453125 25.230469 0.449219 25.390625 0.449219 C 25.832031 0.445312 26.277344 0.441406 26.722656 0.4375 C 27.09375 0.4375 27.464844 0.433594 27.839844 0.429688 C 32.726562 0.382812 37.613281 0.394531 42.5 0.40625 C 42.425781 0.832031 42.296875 1.132812 42.082031 1.507812 C 42.015625 1.625 41.949219 1.738281 41.882812 1.859375 C 41.8125 1.984375 41.742188 2.105469 41.667969 2.230469 C 41.59375 2.359375 41.523438 2.488281 41.449219 2.617188 C 41.082031 3.257812 40.714844 3.894531 40.339844 4.53125 C 40.246094 4.691406 40.152344 4.851562 40.058594 5.011719 C 39.796875 5.472656 39.515625 5.875 39.171875 6.277344 C 37.257812 8.792969 37.964844 10.300781 37.898438 13.957031 C 41.828125 13.957031 45.753906 13.957031 49.800781 13.957031 C 49.691406 14.503906 49.503906 14.945312 49.28125 15.453125 C 49.15625 15.734375 49.035156 16.015625 48.914062 16.300781 C 48.625 16.976562 48.335938 17.648438 47.984375 18.300781 C 46.476562 21.078125 46.464844 23.773438 46.519531 26.886719 C 46.527344 27.40625 46.523438 27.921875 46.519531 28.4375 C 46.515625 28.945312 46.519531 29.449219 46.523438 29.953125 C 46.527344 30.191406 46.527344 30.429688 46.523438 30.667969 C 46.519531 32.273438 46.785156 33.316406 47.753906 34.601562 C 47.96875 34.886719 48.148438 35.1875 48.332031 35.492188 C 48.386719 35.582031 48.441406 35.667969 48.5 35.761719 C 48.621094 36.0625 48.605469 36.210938 48.5 36.515625 C 48.292969 36.648438 48.292969 36.648438 48.101562 36.71875 C 48.101562 36.785156 48.101562 36.851562 48.101562 36.917969 C 47.949219 37.070312 47.949219 37.070312 47.742188 37.242188 C 47.46875 37.480469 47.203125 37.71875 46.949219 37.980469 C 46.722656 38.214844 46.492188 38.433594 46.25 38.644531 C 45.582031 39.230469 44.945312 39.847656 44.300781 40.460938 C 43.472656 41.242188 42.644531 42.023438 41.800781 42.785156 C 41.75 42.851562 41.699219 42.914062 41.648438 42.980469 C 41.230469 43.460938 40.863281 43.644531 40.25 43.691406 C 39.792969 43.707031 39.335938 43.707031 38.878906 43.703125 C 38.671875 43.707031 38.464844 43.707031 38.257812 43.710938 C 37.703125 43.714844 37.144531 43.714844 36.585938 43.714844 C 36.117188 43.714844 35.652344 43.714844 35.183594 43.714844 C 34.082031 43.722656 32.980469 43.71875 31.878906 43.71875 C 30.742188 43.714844 29.605469 43.71875 28.472656 43.726562 C 27.496094 43.734375 26.519531 43.734375 25.542969 43.734375 C 24.960938 43.730469 24.378906 43.734375 23.796875 43.738281 C 23.25 43.742188 22.699219 43.742188 22.152344 43.734375 C 21.953125 43.734375 21.753906 43.734375 21.550781 43.738281 C 19.882812 43.761719 19.882812 43.761719 19.289062 43.207031 C 19.078125 42.976562 18.890625 42.730469 18.699219 42.484375 C 18.5625 42.355469 18.425781 42.226562 18.28125 42.109375 C 17.867188 41.75 17.472656 41.371094 17.074219 40.992188 C 16.488281 40.429688 15.898438 39.875 15.304688 39.324219 C 14.875 38.929688 14.453125 38.527344 14.03125 38.125 C 13.636719 37.753906 13.238281 37.390625 12.824219 37.042969 C 12.699219 36.917969 12.699219 36.917969 12.699219 36.71875 C 12.636719 36.6875 12.578125 36.660156 12.511719 36.628906 C 12.300781 36.515625 12.300781 36.515625 12.101562 36.3125 C 12.136719 35.984375 12.285156 35.738281 12.453125 35.457031 C 12.507812 35.371094 12.558594 35.285156 12.609375 35.199219 C 12.664062 35.109375 12.71875 35.019531 12.773438 34.929688 C 13.164062 34.285156 13.542969 33.636719 13.898438 32.976562 C 13.789062 32.921875 13.679688 32.867188 13.570312 32.808594 C 13.195312 32.597656 13.050781 32.375 12.898438 31.964844 C 12.898438 31.894531 12.898438 31.828125 12.898438 31.761719 C 12.839844 31.761719 12.777344 31.761719 12.714844 31.761719 C 11.234375 31.761719 9.757812 31.765625 8.277344 31.765625 C 7.5625 31.765625 6.84375 31.765625 6.128906 31.769531 C 5.503906 31.769531 4.882812 31.769531 4.257812 31.769531 C 3.925781 31.769531 3.597656 31.769531 3.265625 31.773438 C 2.898438 31.773438 2.53125 31.773438 2.160156 31.773438 C 2.050781 31.773438 1.941406 31.773438 1.828125 31.773438 C 1.34375 31.773438 0.878906 31.765625 0.398438 31.660156 C 0.457031 31.179688 0.667969 30.824219 0.914062 30.421875 C 0.957031 30.347656 1 30.273438 1.042969 30.199219 C 1.140625 30.035156 1.238281 29.867188 1.339844 29.707031 C 1.574219 29.3125 1.808594 28.917969 2.039062 28.523438 C 2.167969 28.308594 2.296875 28.09375 2.421875 27.878906 C 2.910156 27.058594 3.390625 26.238281 3.871094 25.414062 C 3.917969 25.328125 3.96875 25.246094 4.019531 25.15625 C 4.082031 25.046875 4.082031 25.046875 4.148438 24.9375 C 4.300781 24.679688 4.300781 24.679688 4.421875 24.53125 C 4.910156 23.875 4.878906 23.1875 4.882812 22.394531 C 4.882812 22.242188 4.886719 22.09375 4.890625 21.945312 C 4.898438 21.542969 4.902344 21.136719 4.902344 20.734375 C 4.90625 20.480469 4.90625 20.226562 4.910156 19.972656 C 4.917969 19.175781 4.921875 18.378906 4.925781 17.578125 C 4.925781 16.667969 4.9375 15.753906 4.953125 14.839844 C 4.964844 14.128906 4.96875 13.417969 4.972656 12.710938 C 4.972656 12.285156 4.976562 11.863281 4.984375 11.441406 C 5.035156 9.183594 4.730469 7.71875 3.410156 5.863281 C 3.054688 5.351562 2.75 4.8125 2.4375 4.273438 C 2.0625 3.636719 1.679688 3 1.296875 2.371094 C 1.230469 2.261719 1.164062 2.15625 1.097656 2.046875 C 0.972656 1.839844 0.847656 1.636719 0.722656 1.433594 C 0.667969 1.34375 0.609375 1.25 0.554688 1.15625 C 0.503906 1.078125 0.457031 1 0.40625 0.914062 C 0.300781 0.707031 0.300781 0.707031 0.300781 0.40625 Z M 0.300781 0.40625 "/>
<path style=" stroke:none;fill-rule:nonzero;fill:rgb(99.607843%,99.607843%,99.215686%);fill-opacity:1;" d="M 7.699219 4.449219 C 8.910156 4.429688 10.121094 4.414062 11.332031 4.402344 C 11.890625 4.398438 12.453125 4.390625 13.015625 4.382812 C 13.558594 4.371094 14.101562 4.367188 14.644531 4.363281 C 14.851562 4.363281 15.058594 4.359375 15.265625 4.355469 C 16.882812 4.316406 16.882812 4.316406 17.421875 4.644531 C 17.648438 4.871094 17.824219 5.09375 18 5.359375 C 18.105469 5.488281 18.214844 5.617188 18.324219 5.738281 C 18.378906 5.804688 18.433594 5.871094 18.492188 5.9375 C 18.820312 6.304688 19.171875 6.652344 19.523438 7 C 19.882812 7.363281 20.226562 7.734375 20.558594 8.125 C 20.757812 8.363281 20.976562 8.582031 21.199219 8.800781 C 21.5 8.664062 21.699219 8.519531 21.921875 8.273438 C 21.980469 8.210938 22.039062 8.148438 22.097656 8.082031 C 22.15625 8.015625 22.21875 7.945312 22.28125 7.878906 C 22.34375 7.808594 22.40625 7.738281 22.472656 7.667969 C 22.828125 7.277344 23.179688 6.878906 23.523438 6.476562 C 23.808594 6.144531 24.105469 5.824219 24.402344 5.5 C 24.625 5.253906 24.824219 5.019531 25.007812 4.738281 C 25.167969 4.546875 25.257812 4.460938 25.503906 4.394531 C 25.757812 4.375 26.007812 4.375 26.265625 4.382812 C 26.410156 4.382812 26.410156 4.382812 26.558594 4.382812 C 26.878906 4.382812 27.195312 4.386719 27.515625 4.390625 C 27.734375 4.390625 27.957031 4.394531 28.179688 4.394531 C 28.761719 4.394531 29.339844 4.402344 29.921875 4.410156 C 30.515625 4.414062 31.113281 4.417969 31.707031 4.421875 C 32.871094 4.425781 34.035156 4.4375 35.199219 4.449219 C 34.992188 4.902344 34.789062 5.339844 34.5 5.742188 C 33.839844 6.679688 33.785156 7.445312 33.792969 8.570312 C 33.792969 8.746094 33.789062 8.925781 33.789062 9.101562 C 33.785156 9.578125 33.785156 10.054688 33.785156 10.53125 C 33.785156 10.929688 33.785156 11.328125 33.785156 11.730469 C 33.78125 12.671875 33.78125 13.617188 33.785156 14.5625 C 33.789062 15.53125 33.785156 16.5 33.777344 17.46875 C 33.773438 18.304688 33.773438 19.140625 33.773438 19.976562 C 33.773438 20.476562 33.773438 20.972656 33.769531 21.46875 C 33.765625 21.9375 33.765625 22.40625 33.773438 22.875 C 33.773438 23.046875 33.773438 23.21875 33.769531 23.386719 C 33.75 24.746094 34.148438 25.59375 34.898438 26.703125 C 35.199219 27.179688 35.199219 27.179688 35.199219 27.410156 C 32.164062 27.410156 29.128906 27.410156 26 27.410156 C 26.171875 26.980469 26.363281 26.597656 26.59375 26.199219 C 26.628906 26.136719 26.664062 26.074219 26.699219 26.011719 C 26.847656 25.753906 26.992188 25.5 27.160156 25.253906 C 27.324219 24.9375 27.339844 24.738281 27.339844 24.386719 C 27.339844 24.265625 27.34375 24.144531 27.34375 24.023438 C 27.34375 23.890625 27.34375 23.761719 27.34375 23.625 C 27.34375 23.488281 27.34375 23.347656 27.347656 23.207031 C 27.347656 22.828125 27.351562 22.453125 27.351562 22.074219 C 27.351562 21.675781 27.355469 21.28125 27.355469 20.886719 C 27.359375 20.136719 27.363281 19.390625 27.367188 18.640625 C 27.367188 17.789062 27.375 16.933594 27.378906 16.082031 C 27.386719 14.328125 27.394531 12.578125 27.398438 10.824219 C 27.28125 10.941406 27.28125 10.941406 27.164062 11.0625 C 27.007812 11.21875 26.855469 11.371094 26.699219 11.527344 C 26.636719 11.589844 26.578125 11.652344 26.511719 11.714844 C 26.449219 11.777344 26.390625 11.835938 26.324219 11.898438 C 26.132812 12.101562 25.953125 12.308594 25.769531 12.519531 C 25.414062 12.933594 25.046875 13.332031 24.675781 13.730469 C 24.136719 14.308594 23.605469 14.886719 23.078125 15.472656 C 22.554688 16.050781 22.027344 16.621094 21.5 17.195312 C 21.152344 17.046875 20.929688 16.847656 20.667969 16.574219 C 20.597656 16.503906 20.523438 16.429688 20.453125 16.355469 C 20.25 16.136719 20.058594 15.921875 19.867188 15.699219 C 19.503906 15.273438 19.125 14.867188 18.742188 14.457031 C 18.601562 14.308594 18.460938 14.15625 18.320312 14.003906 C 18.25 13.929688 18.179688 13.855469 18.109375 13.777344 C 17.320312 12.929688 16.53125 12.082031 15.765625 11.214844 C 15.648438 11.078125 15.527344 10.949219 15.398438 10.824219 C 15.371094 12.601562 15.347656 14.382812 15.332031 16.164062 C 15.324219 16.988281 15.316406 17.816406 15.300781 18.640625 C 15.289062 19.363281 15.28125 20.085938 15.277344 20.808594 C 15.277344 21.1875 15.273438 21.570312 15.261719 21.949219 C 15.214844 23.875 15.433594 25.304688 16.582031 26.910156 C 16.699219 27.109375 16.699219 27.109375 16.699219 27.410156 C 13.695312 27.410156 10.695312 27.410156 7.601562 27.410156 C 7.820312 26.742188 7.820312 26.742188 8.078125 26.445312 C 9.339844 24.816406 9.171875 22.980469 9.152344 21.015625 C 9.148438 20.523438 9.148438 20.03125 9.148438 19.539062 C 9.152344 18.714844 9.148438 17.894531 9.140625 17.070312 C 9.132812 16.121094 9.132812 15.171875 9.136719 14.222656 C 9.136719 13.304688 9.136719 12.386719 9.132812 11.46875 C 9.128906 11.078125 9.128906 10.691406 9.132812 10.304688 C 9.132812 9.84375 9.128906 9.386719 9.125 8.929688 C 9.121094 8.761719 9.121094 8.597656 9.125 8.429688 C 9.132812 7.074219 8.734375 6.191406 7.980469 5.085938 C 7.699219 4.671875 7.699219 4.671875 7.699219 4.449219 Z M 7.699219 4.449219 "/>
<path style=" stroke:none;fill-rule:nonzero;fill:rgb(99.215686%,99.215686%,98.823529%);fill-opacity:1;" d="M 17.300781 18.105469 C 20.105469 18.105469 22.910156 18.105469 25.800781 18.105469 C 25.621094 18.644531 25.453125 19.148438 25.238281 19.667969 C 25.195312 19.769531 25.152344 19.871094 25.109375 19.976562 C 25.042969 20.128906 24.972656 20.28125 24.898438 20.433594 C 24.890625 20.582031 24.886719 20.734375 24.882812 20.882812 C 24.882812 20.976562 24.882812 21.074219 24.882812 21.171875 C 24.878906 21.273438 24.878906 21.378906 24.878906 21.488281 C 24.878906 21.597656 24.878906 21.707031 24.875 21.820312 C 24.875 22.183594 24.871094 22.546875 24.867188 22.914062 C 24.867188 23.101562 24.867188 23.101562 24.867188 23.289062 C 24.863281 23.882812 24.863281 24.472656 24.859375 25.066406 C 24.859375 25.679688 24.855469 26.292969 24.847656 26.90625 C 24.84375 27.566406 24.839844 28.222656 24.839844 28.882812 C 24.839844 29.132812 24.835938 29.382812 24.832031 29.632812 C 24.828125 29.984375 24.828125 30.335938 24.832031 30.691406 C 24.828125 30.792969 24.828125 30.894531 24.824219 31 C 24.832031 31.953125 25.226562 32.667969 25.820312 33.390625 C 26.46875 33.914062 27.417969 33.785156 28.207031 33.78125 C 28.394531 33.78125 28.582031 33.78125 28.769531 33.78125 C 29.160156 33.785156 29.550781 33.785156 29.941406 33.78125 C 30.441406 33.777344 30.941406 33.78125 31.441406 33.785156 C 31.828125 33.789062 32.214844 33.789062 32.601562 33.785156 C 32.785156 33.785156 32.972656 33.789062 33.15625 33.789062 C 34.328125 33.828125 34.328125 33.828125 35.34375 33.320312 C 36.019531 32.613281 36.160156 31.882812 36.15625 30.929688 C 36.160156 30.816406 36.160156 30.707031 36.164062 30.59375 C 36.164062 30.226562 36.167969 29.859375 36.167969 29.492188 C 36.167969 29.238281 36.167969 28.980469 36.171875 28.722656 C 36.171875 28.183594 36.175781 27.644531 36.175781 27.105469 C 36.175781 26.488281 36.179688 25.875 36.183594 25.257812 C 36.191406 24.65625 36.191406 24.058594 36.191406 23.460938 C 36.191406 23.207031 36.195312 22.957031 36.195312 22.703125 C 36.214844 21.109375 36.046875 19.824219 35.371094 18.371094 C 35.300781 18.207031 35.300781 18.207031 35.300781 18.105469 C 38.007812 18.105469 40.710938 18.105469 43.5 18.105469 C 43 19.320312 43 19.320312 42.722656 19.867188 C 42.433594 20.507812 42.425781 21.105469 42.429688 21.800781 C 42.429688 21.933594 42.429688 22.066406 42.425781 22.203125 C 42.421875 22.5625 42.421875 22.921875 42.421875 23.28125 C 42.421875 23.585938 42.421875 23.886719 42.421875 24.1875 C 42.417969 24.902344 42.417969 25.613281 42.417969 26.328125 C 42.417969 27.058594 42.417969 27.792969 42.410156 28.523438 C 42.40625 29.15625 42.402344 29.785156 42.40625 30.417969 C 42.40625 30.792969 42.402344 31.171875 42.398438 31.546875 C 42.394531 31.964844 42.398438 32.386719 42.402344 32.804688 C 42.398438 32.988281 42.398438 32.988281 42.394531 33.175781 C 42.40625 34.011719 42.625 34.492188 43.128906 35.15625 C 43.300781 35.402344 43.300781 35.402344 43.300781 35.707031 C 43.160156 35.859375 43.160156 35.859375 42.960938 36.023438 C 42.851562 36.117188 42.851562 36.117188 42.738281 36.210938 C 42.660156 36.277344 42.582031 36.34375 42.5 36.414062 C 42.34375 36.554688 42.1875 36.695312 42.03125 36.835938 C 41.949219 36.914062 41.863281 36.988281 41.777344 37.070312 C 41.414062 37.402344 41.050781 37.742188 40.691406 38.082031 C 40.589844 38.175781 40.484375 38.269531 40.382812 38.363281 C 40.195312 38.535156 40.195312 38.535156 40.03125 38.742188 C 39.578125 39.238281 39.183594 39.421875 38.523438 39.453125 C 38.207031 39.464844 37.894531 39.464844 37.578125 39.464844 C 37.40625 39.464844 37.230469 39.46875 37.058594 39.472656 C 36.585938 39.476562 36.117188 39.480469 35.648438 39.480469 C 35.253906 39.480469 34.859375 39.480469 34.464844 39.484375 C 33.535156 39.492188 32.601562 39.492188 31.671875 39.492188 C 30.714844 39.492188 29.757812 39.5 28.800781 39.511719 C 27.976562 39.519531 27.152344 39.523438 26.328125 39.523438 C 25.839844 39.523438 25.347656 39.523438 24.855469 39.53125 C 21.480469 39.582031 21.480469 39.582031 20.589844 38.824219 C 20.347656 38.570312 20.136719 38.308594 19.941406 38.019531 C 19.703125 37.699219 19.410156 37.449219 19.113281 37.183594 C 19.007812 37.085938 18.902344 36.988281 18.800781 36.890625 C 18.601562 36.707031 18.402344 36.53125 18.195312 36.355469 C 18.101562 36.277344 18.007812 36.199219 17.914062 36.117188 C 17.832031 36.050781 17.746094 35.980469 17.664062 35.910156 C 17.5 35.707031 17.5 35.707031 17.519531 35.46875 C 17.605469 35.175781 17.726562 34.992188 17.902344 34.746094 C 18.285156 34.117188 18.285156 33.558594 18.28125 32.832031 C 18.285156 32.699219 18.285156 32.566406 18.285156 32.429688 C 18.292969 32.070312 18.292969 31.710938 18.289062 31.351562 C 18.289062 31.046875 18.292969 30.746094 18.292969 30.445312 C 18.296875 29.726562 18.296875 29.011719 18.292969 28.296875 C 18.292969 27.5625 18.296875 26.832031 18.304688 26.097656 C 18.308594 25.464844 18.308594 24.832031 18.308594 24.199219 C 18.308594 23.824219 18.308594 23.445312 18.3125 23.070312 C 18.328125 21.496094 18.300781 20.140625 17.492188 18.746094 C 17.300781 18.410156 17.300781 18.410156 17.300781 18.105469 Z M 17.300781 18.105469 "/>
<path style=" stroke:none;fill-rule:nonzero;fill:rgb(98.039216%,78.431374%,23.921569%);fill-opacity:1;" d="M 0.300781 0.40625 C 1.914062 0.402344 3.527344 0.402344 5.140625 0.398438 C 5.890625 0.398438 6.636719 0.398438 7.386719 0.398438 C 9.183594 0.394531 10.980469 0.394531 12.773438 0.402344 C 13.261719 0.40625 13.746094 0.40625 14.230469 0.40625 C 14.878906 0.40625 15.53125 0.410156 16.179688 0.414062 C 16.421875 0.417969 16.660156 0.417969 16.898438 0.417969 C 17.226562 0.417969 17.554688 0.421875 17.878906 0.425781 C 17.976562 0.421875 18.070312 0.421875 18.167969 0.421875 C 18.636719 0.433594 18.917969 0.464844 19.265625 0.800781 C 19.5 1.113281 19.5 1.113281 19.5 1.316406 C 19.566406 1.316406 19.632812 1.316406 19.699219 1.316406 C 19.84375 1.464844 19.84375 1.464844 20.011719 1.667969 C 20.386719 2.113281 20.785156 2.523438 21.199219 2.933594 C 21.3125 2.820312 21.425781 2.703125 21.539062 2.589844 C 21.652344 2.472656 21.769531 2.359375 21.886719 2.242188 C 22.429688 1.699219 22.976562 1.152344 23.398438 0.503906 C 23.675781 0.464844 23.675781 0.464844 24.035156 0.460938 C 24.101562 0.460938 24.167969 0.460938 24.234375 0.457031 C 24.457031 0.457031 24.683594 0.453125 24.90625 0.453125 C 25.066406 0.453125 25.230469 0.449219 25.390625 0.449219 C 25.832031 0.445312 26.277344 0.441406 26.722656 0.4375 C 27.09375 0.4375 27.464844 0.433594 27.839844 0.429688 C 32.726562 0.382812 37.613281 0.394531 42.5 0.40625 C 42.425781 0.832031 42.296875 1.132812 42.082031 1.507812 C 42.015625 1.625 41.949219 1.738281 41.882812 1.859375 C 41.8125 1.984375 41.742188 2.105469 41.667969 2.230469 C 41.59375 2.359375 41.523438 2.488281 41.449219 2.617188 C 41.082031 3.257812 40.714844 3.894531 40.339844 4.53125 C 40.246094 4.691406 40.152344 4.851562 40.058594 5.011719 C 39.796875 5.472656 39.515625 5.875 39.171875 6.277344 C 37.257812 8.792969 37.964844 10.300781 37.898438 13.957031 C 41.828125 13.957031 45.753906 13.957031 49.800781 13.957031 C 49.691406 14.503906 49.503906 14.945312 49.28125 15.453125 C 49.15625 15.734375 49.035156 16.015625 48.914062 16.300781 C 48.625 16.976562 48.335938 17.648438 47.984375 18.300781 C 46.476562 21.078125 46.464844 23.773438 46.519531 26.886719 C 46.527344 27.40625 46.523438 27.921875 46.519531 28.4375 C 46.515625 28.945312 46.519531 29.449219 46.523438 29.953125 C 46.527344 30.191406 46.527344 30.429688 46.523438 30.667969 C 46.519531 32.273438 46.785156 33.316406 47.753906 34.601562 C 47.96875 34.886719 48.148438 35.1875 48.332031 35.492188 C 48.386719 35.582031 48.441406 35.667969 48.5 35.761719 C 48.621094 36.0625 48.605469 36.210938 48.5 36.515625 C 48.292969 36.648438 48.292969 36.648438 48.101562 36.71875 C 48.101562 36.785156 48.101562 36.851562 48.101562 36.917969 C 47.949219 37.070312 47.949219 37.070312 47.742188 37.242188 C 47.46875 37.480469 47.203125 37.71875 46.949219 37.980469 C 46.722656 38.214844 46.492188 38.433594 46.25 38.644531 C 45.582031 39.230469 44.945312 39.847656 44.300781 40.460938 C 43.472656 41.242188 42.644531 42.023438 41.800781 42.785156 C 41.75 42.851562 41.699219 42.914062 41.648438 42.980469 C 41.230469 43.460938 40.863281 43.644531 40.25 43.691406 C 39.792969 43.707031 39.335938 43.707031 38.878906 43.703125 C 38.671875 43.707031 38.464844 43.707031 38.257812 43.710938 C 37.703125 43.714844 37.144531 43.714844 36.585938 43.714844 C 36.117188 43.714844 35.652344 43.714844 35.183594 43.714844 C 34.082031 43.722656 32.980469 43.71875 31.878906 43.71875 C 30.742188 43.714844 29.605469 43.71875 28.472656 43.726562 C 27.496094 43.734375 26.519531 43.734375 25.542969 43.734375 C 24.960938 43.730469 24.378906 43.734375 23.796875 43.738281 C 23.25 43.742188 22.699219 43.742188 22.152344 43.734375 C 21.953125 43.734375 21.753906 43.734375 21.550781 43.738281 C 19.882812 43.761719 19.882812 43.761719 19.289062 43.207031 C 19.078125 42.976562 18.890625 42.730469 18.699219 42.484375 C 18.5625 42.355469 18.425781 42.226562 18.28125 42.109375 C 17.867188 41.75 17.472656 41.371094 17.074219 40.992188 C 16.488281 40.429688 15.898438 39.875 15.304688 39.324219 C 14.875 38.929688 14.453125 38.527344 14.03125 38.125 C 13.636719 37.753906 13.238281 37.390625 12.824219 37.042969 C 12.699219 36.917969 12.699219 36.917969 12.699219 36.71875 C 12.636719 36.6875 12.578125 36.660156 12.511719 36.628906 C 12.300781 36.515625 12.300781 36.515625 12.101562 36.3125 C 12.136719 35.984375 12.285156 35.738281 12.453125 35.457031 C 12.507812 35.371094 12.558594 35.285156 12.609375 35.199219 C 12.664062 35.109375 12.71875 35.019531 12.773438 34.929688 C 13.164062 34.285156 13.542969 33.636719 13.898438 32.976562 C 13.789062 32.921875 13.679688 32.867188 13.570312 32.808594 C 13.195312 32.597656 13.050781 32.375 12.898438 31.964844 C 12.898438 31.894531 12.898438 31.828125 12.898438 31.761719 C 12.839844 31.761719 12.777344 31.761719 12.714844 31.761719 C 11.234375 31.761719 9.757812 31.765625 8.277344 31.765625 C 7.5625 31.765625 6.84375 31.765625 6.128906 31.769531 C 5.503906 31.769531 4.882812 31.769531 4.257812 31.769531 C 3.925781 31.769531 3.597656 31.769531 3.265625 31.773438 C 2.898438 31.773438 2.53125 31.773438 2.160156 31.773438 C 2.050781 31.773438 1.941406 31.773438 1.828125 31.773438 C 1.34375 31.773438 0.878906 31.765625 0.398438 31.660156 C 0.457031 31.179688 0.667969 30.824219 0.914062 30.421875 C 0.957031 30.347656 1 30.273438 1.042969 30.199219 C 1.140625 30.035156 1.238281 29.867188 1.339844 29.707031 C 1.574219 29.3125 1.808594 28.917969 2.039062 28.523438 C 2.167969 28.308594 2.296875 28.09375 2.421875 27.878906 C 2.910156 27.058594 3.390625 26.238281 3.871094 25.414062 C 3.917969 25.328125 3.96875 25.246094 4.019531 25.15625 C 4.082031 25.046875 4.082031 25.046875 4.148438 24.9375 C 4.300781 24.679688 4.300781 24.679688 4.421875 24.53125 C 4.910156 23.875 4.878906 23.1875 4.882812 22.394531 C 4.882812 22.242188 4.886719 22.09375 4.890625 21.945312 C 4.898438 21.542969 4.902344 21.136719 4.902344 20.734375 C 4.90625 20.480469 4.90625 20.226562 4.910156 19.972656 C 4.917969 19.175781 4.921875 18.378906 4.925781 17.578125 C 4.925781 16.667969 4.9375 15.753906 4.953125 14.839844 C 4.964844 14.128906 4.96875 13.417969 4.972656 12.710938 C 4.972656 12.285156 4.976562 11.863281 4.984375 11.441406 C 5.035156 9.183594 4.730469 7.71875 3.410156 5.863281 C 3.054688 5.351562 2.75 4.8125 2.4375 4.273438 C 2.0625 3.636719 1.679688 3 1.296875 2.371094 C 1.230469 2.261719 1.164062 2.15625 1.097656 2.046875 C 0.972656 1.839844 0.847656 1.636719 0.722656 1.433594 C 0.667969 1.34375 0.609375 1.25 0.554688 1.15625 C 0.503906 1.078125 0.457031 1 0.40625 0.914062 C 0.300781 0.707031 0.300781 0.707031 0.300781 0.40625 Z M 2.699219 1.820312 C 2.867188 2.242188 3.054688 2.613281 3.285156 3.003906 C 3.324219 3.066406 3.363281 3.132812 3.402344 3.199219 C 3.484375 3.339844 3.566406 3.480469 3.648438 3.621094 C 3.769531 3.824219 3.890625 4.027344 4.011719 4.234375 C 4.066406 4.328125 4.066406 4.328125 4.125 4.425781 C 4.207031 4.566406 4.289062 4.710938 4.371094 4.851562 C 4.609375 5.265625 4.863281 5.652344 5.152344 6.03125 C 6.410156 7.738281 6.40625 9.335938 6.378906 11.375 C 6.375 11.820312 6.375 12.269531 6.378906 12.714844 C 6.378906 13.464844 6.375 14.214844 6.367188 14.964844 C 6.355469 15.828125 6.355469 16.691406 6.363281 17.550781 C 6.367188 18.386719 6.363281 19.226562 6.359375 20.0625 C 6.355469 20.414062 6.355469 20.765625 6.359375 21.121094 C 6.375 24.554688 6.375 24.554688 5.242188 25.917969 C 4.988281 26.238281 4.796875 26.597656 4.59375 26.953125 C 4.515625 27.09375 4.433594 27.230469 4.351562 27.367188 C 4.273438 27.503906 4.191406 27.640625 4.113281 27.777344 C 3.949219 28.054688 3.789062 28.332031 3.625 28.609375 C 3.589844 28.675781 3.550781 28.738281 3.511719 28.804688 C 3.3125 29.148438 3.105469 29.488281 2.894531 29.824219 C 2.683594 30.109375 2.683594 30.109375 2.699219 30.34375 C 6.925781 30.34375 11.148438 30.34375 15.5 30.34375 C 15.382812 33.847656 15.382812 33.847656 14.148438 35.390625 C 13.988281 35.621094 13.894531 35.84375 13.800781 36.109375 C 15.007812 37.257812 16.222656 38.402344 17.449219 39.535156 C 17.867188 39.921875 18.285156 40.3125 18.703125 40.703125 C 18.800781 40.796875 18.902344 40.890625 19.007812 40.980469 C 19.199219 41.167969 19.199219 41.167969 19.40625 41.417969 C 19.953125 42.019531 20.375 42.269531 21.191406 42.308594 C 21.546875 42.320312 21.902344 42.316406 22.261719 42.3125 C 22.457031 42.316406 22.65625 42.316406 22.851562 42.320312 C 23.386719 42.324219 23.917969 42.324219 24.449219 42.320312 C 24.898438 42.320312 25.34375 42.320312 25.789062 42.324219 C 26.84375 42.328125 27.894531 42.328125 28.949219 42.324219 C 30.03125 42.316406 31.113281 42.320312 32.199219 42.328125 C 33.132812 42.335938 34.066406 42.335938 34.996094 42.335938 C 35.554688 42.332031 36.109375 42.332031 36.664062 42.339844 C 37.1875 42.34375 37.710938 42.339844 38.234375 42.335938 C 38.425781 42.332031 38.617188 42.335938 38.808594 42.335938 C 40.027344 42.363281 40.027344 42.363281 41.042969 41.753906 C 41.277344 41.5 41.488281 41.234375 41.699219 40.964844 C 41.839844 40.832031 41.980469 40.703125 42.125 40.582031 C 42.519531 40.242188 42.898438 39.882812 43.273438 39.523438 C 43.75 39.074219 44.226562 38.621094 44.707031 38.175781 C 44.847656 38.046875 44.847656 38.046875 44.988281 37.914062 C 45.15625 37.757812 45.328125 37.605469 45.496094 37.449219 C 45.703125 37.257812 45.910156 37.066406 46.117188 36.875 C 46.183594 36.816406 46.25 36.753906 46.320312 36.695312 C 46.410156 36.609375 46.410156 36.609375 46.503906 36.523438 C 46.558594 36.472656 46.613281 36.421875 46.671875 36.371094 C 46.828125 36.175781 46.875 36.058594 46.898438 35.808594 C 46.765625 35.613281 46.765625 35.613281 46.566406 35.421875 C 44.726562 33.320312 45.046875 30.582031 45.078125 27.9375 C 45.082031 27.328125 45.074219 26.722656 45.0625 26.113281 C 45.007812 22.664062 45.441406 20.011719 47.097656 16.984375 C 47.53125 16.21875 47.53125 16.21875 47.699219 15.375 C 44.035156 15.375 40.375 15.375 36.601562 15.375 C 36.589844 14.1875 36.578125 12.996094 36.570312 11.769531 C 36.5625 11.402344 36.554688 11.03125 36.546875 10.648438 C 36.539062 8.777344 36.664062 7.421875 37.835938 5.886719 C 38.078125 5.558594 38.277344 5.210938 38.480469 4.855469 C 38.550781 4.738281 38.621094 4.621094 38.695312 4.5 C 38.835938 4.269531 38.976562 4.035156 39.117188 3.800781 C 39.40625 3.316406 39.699219 2.835938 40 2.355469 C 40.21875 2.058594 40.21875 2.058594 40.199219 1.820312 C 38.117188 1.796875 36.03125 1.777344 33.949219 1.769531 C 32.980469 1.761719 32.015625 1.757812 31.046875 1.746094 C 30.203125 1.734375 29.359375 1.726562 28.515625 1.726562 C 28.070312 1.722656 27.625 1.722656 27.175781 1.714844 C 26.757812 1.707031 26.335938 1.703125 25.914062 1.707031 C 25.761719 1.707031 25.605469 1.703125 25.453125 1.699219 C 24.582031 1.671875 24.582031 1.671875 23.8125 2.042969 C 23.585938 2.296875 23.390625 2.550781 23.199219 2.832031 C 23.109375 2.9375 23.015625 3.042969 22.917969 3.144531 C 22.488281 3.625 22.058594 4.101562 21.648438 4.597656 C 21.5 4.753906 21.5 4.753906 21.199219 4.957031 C 19.894531 3.652344 19.894531 3.652344 19.363281 3.019531 C 19.109375 2.730469 18.835938 2.460938 18.558594 2.191406 C 18.398438 2.023438 18.398438 2.023438 18.300781 1.820312 C 13.152344 1.820312 8.003906 1.820312 2.699219 1.820312 Z M 2.699219 1.820312 "/>
<path style=" stroke:none;fill-rule:nonzero;fill:rgb(96.078432%,77.64706%,19.607843%);fill-opacity:1;" d="M 43.398438 18.207031 C 43.238281 18.746094 43.046875 19.222656 42.792969 19.722656 C 42.464844 20.4375 42.414062 21.042969 42.417969 21.824219 C 42.417969 22.023438 42.417969 22.023438 42.414062 22.226562 C 42.410156 22.585938 42.410156 22.945312 42.414062 23.304688 C 42.414062 23.605469 42.414062 23.90625 42.410156 24.207031 C 42.410156 24.917969 42.410156 25.628906 42.410156 26.34375 C 42.414062 27.074219 42.410156 27.804688 42.40625 28.535156 C 42.402344 29.164062 42.398438 29.796875 42.398438 30.425781 C 42.402344 30.800781 42.402344 31.175781 42.398438 31.554688 C 42.394531 31.972656 42.394531 32.390625 42.398438 32.808594 C 42.398438 32.929688 42.394531 33.054688 42.394531 33.179688 C 42.40625 34.011719 42.625 34.496094 43.128906 35.15625 C 43.300781 35.402344 43.300781 35.402344 43.300781 35.707031 C 43.160156 35.859375 43.160156 35.859375 42.960938 36.023438 C 42.851562 36.117188 42.851562 36.117188 42.738281 36.210938 C 42.660156 36.277344 42.582031 36.34375 42.5 36.414062 C 42.34375 36.554688 42.1875 36.695312 42.03125 36.835938 C 41.949219 36.914062 41.863281 36.988281 41.777344 37.070312 C 41.414062 37.402344 41.050781 37.742188 40.691406 38.082031 C 40.589844 38.175781 40.484375 38.269531 40.382812 38.363281 C 40.195312 38.535156 40.195312 38.535156 40.03125 38.742188 C 39.578125 39.238281 39.183594 39.421875 38.523438 39.453125 C 38.207031 39.464844 37.894531 39.464844 37.578125 39.464844 C 37.40625 39.464844 37.230469 39.46875 37.058594 39.472656 C 36.585938 39.476562 36.117188 39.480469 35.648438 39.480469 C 35.253906 39.480469 34.859375 39.480469 34.464844 39.484375 C 33.535156 39.492188 32.601562 39.492188 31.671875 39.492188 C 30.714844 39.492188 29.757812 39.5 28.800781 39.511719 C 27.976562 39.519531 27.152344 39.523438 26.328125 39.523438 C 25.839844 39.523438 25.347656 39.523438 24.855469 39.53125 C 21.480469 39.582031 21.480469 39.582031 20.589844 38.824219 C 20.347656 38.570312 20.136719 38.308594 19.941406 38.019531 C 19.703125 37.699219 19.410156 37.449219 19.113281 37.183594 C 19.007812 37.085938 18.902344 36.992188 18.800781 36.894531 C 18.601562 36.707031 18.398438 36.527344 18.195312 36.347656 C 18.105469 36.265625 18.011719 36.183594 17.917969 36.097656 C 17.796875 35.992188 17.796875 35.992188 17.671875 35.882812 C 17.5 35.707031 17.5 35.707031 17.5 35.503906 C 18.566406 35.273438 18.566406 35.273438 19.050781 35.542969 C 19.257812 35.734375 19.453125 35.933594 19.644531 36.144531 C 19.976562 36.503906 20.339844 36.832031 20.695312 37.167969 C 20.769531 37.238281 20.84375 37.308594 20.921875 37.382812 C 20.992188 37.453125 21.0625 37.519531 21.132812 37.589844 C 21.199219 37.648438 21.261719 37.710938 21.324219 37.773438 C 21.511719 37.949219 21.511719 37.949219 21.800781 38.132812 C 21.800781 38.199219 21.800781 38.265625 21.800781 38.335938 C 24.011719 38.347656 26.222656 38.355469 28.433594 38.355469 C 29.457031 38.351562 30.484375 38.355469 31.511719 38.363281 C 32.40625 38.367188 33.300781 38.371094 34.195312 38.367188 C 34.667969 38.363281 35.144531 38.367188 35.617188 38.371094 C 36.0625 38.375 36.507812 38.375 36.957031 38.371094 C 37.121094 38.371094 37.28125 38.371094 37.445312 38.375 C 38.191406 38.390625 38.816406 38.386719 39.386719 37.84375 C 39.605469 37.613281 39.800781 37.367188 40 37.121094 C 40.132812 36.996094 40.265625 36.875 40.40625 36.753906 C 40.5 36.671875 40.5 36.671875 40.59375 36.589844 C 40.753906 36.453125 40.914062 36.320312 41.074219 36.191406 C 41.167969 36.113281 41.261719 36.03125 41.355469 35.953125 C 41.441406 35.882812 41.53125 35.808594 41.621094 35.738281 C 41.832031 35.511719 41.832031 35.511719 41.796875 35.195312 C 41.722656 34.898438 41.722656 34.898438 41.546875 34.710938 C 41.355469 34.425781 41.363281 34.242188 41.359375 33.902344 C 41.359375 33.78125 41.359375 33.660156 41.355469 33.535156 C 41.355469 33.402344 41.359375 33.269531 41.359375 33.132812 C 41.355469 32.992188 41.355469 32.851562 41.355469 32.710938 C 41.351562 32.328125 41.351562 31.945312 41.351562 31.5625 C 41.351562 31.242188 41.351562 30.921875 41.351562 30.605469 C 41.347656 29.847656 41.347656 29.09375 41.351562 28.335938 C 41.351562 27.558594 41.347656 26.78125 41.34375 26.003906 C 41.339844 25.335938 41.339844 24.667969 41.339844 23.996094 C 41.339844 23.597656 41.339844 23.199219 41.339844 22.800781 C 41.335938 22.425781 41.335938 22.050781 41.339844 21.671875 C 41.339844 21.472656 41.335938 21.269531 41.335938 21.066406 C 41.339844 20.289062 41.433594 19.65625 41.898438 19.015625 C 42.152344 18.808594 42.410156 18.65625 42.699219 18.511719 C 42.792969 18.449219 42.890625 18.390625 42.988281 18.328125 C 43.199219 18.207031 43.199219 18.207031 43.398438 18.207031 Z M 43.398438 18.207031 "/>
<path style=" stroke:none;fill-rule:nonzero;fill:rgb(95.294118%,77.64706%,21.960784%);fill-opacity:1;" d="M 35.101562 4.550781 C 34.992188 4.871094 34.851562 5.140625 34.667969 5.417969 C 33.949219 6.503906 33.753906 7.328125 33.769531 8.617188 C 33.769531 8.792969 33.765625 8.96875 33.765625 9.148438 C 33.761719 9.621094 33.761719 10.097656 33.765625 10.570312 C 33.769531 11.070312 33.765625 11.570312 33.765625 12.070312 C 33.761719 12.910156 33.765625 13.75 33.769531 14.589844 C 33.773438 15.558594 33.773438 16.523438 33.769531 17.492188 C 33.761719 18.324219 33.761719 19.160156 33.765625 19.992188 C 33.765625 20.488281 33.765625 20.988281 33.765625 21.484375 C 33.761719 21.949219 33.761719 22.417969 33.769531 22.882812 C 33.769531 23.054688 33.769531 23.222656 33.765625 23.394531 C 33.75 24.746094 34.152344 25.597656 34.898438 26.703125 C 35.199219 27.179688 35.199219 27.179688 35.199219 27.410156 C 32.195312 27.410156 29.195312 27.410156 26.101562 27.410156 C 27.082031 26.617188 27.789062 26.308594 29.054688 26.339844 C 29.242188 26.34375 29.242188 26.34375 29.433594 26.34375 C 29.761719 26.347656 30.089844 26.351562 30.417969 26.359375 C 30.753906 26.363281 31.089844 26.367188 31.425781 26.371094 C 32.085938 26.378906 32.742188 26.386719 33.398438 26.398438 C 33.300781 26.214844 33.203125 26.035156 33.105469 25.851562 C 33.050781 25.746094 32.996094 25.644531 32.941406 25.539062 C 32.824219 25.300781 32.824219 25.300781 32.699219 25.1875 C 32.6875 24.945312 32.683594 24.710938 32.683594 24.472656 C 32.683594 24.394531 32.683594 24.320312 32.679688 24.242188 C 32.679688 23.984375 32.679688 23.730469 32.675781 23.476562 C 32.675781 23.292969 32.675781 23.109375 32.675781 22.925781 C 32.671875 22.324219 32.667969 21.722656 32.664062 21.121094 C 32.664062 21.019531 32.664062 20.917969 32.664062 20.8125 C 32.660156 19.847656 32.65625 18.882812 32.65625 17.917969 C 32.652344 16.679688 32.648438 15.445312 32.640625 14.210938 C 32.632812 13.34375 32.632812 12.476562 32.628906 11.609375 C 32.628906 11.089844 32.628906 10.570312 32.621094 10.054688 C 32.617188 9.566406 32.617188 9.078125 32.617188 8.589844 C 32.617188 8.410156 32.617188 8.230469 32.613281 8.050781 C 32.601562 7.003906 32.632812 6.164062 33.398438 5.359375 C 33.726562 5.144531 34.070312 4.964844 34.417969 4.785156 C 34.546875 4.71875 34.546875 4.71875 34.679688 4.652344 C 34.898438 4.550781 34.898438 4.550781 35.101562 4.550781 Z M 35.101562 4.550781 "/>
<path style=" stroke:none;fill-rule:nonzero;fill:rgb(94.901961%,77.64706%,22.352941%);fill-opacity:1;" d="M 14.300781 8.191406 C 14.5 8.292969 14.5 8.292969 14.597656 8.542969 C 14.628906 8.648438 14.660156 8.753906 14.695312 8.863281 C 14.804688 9.21875 14.917969 9.570312 15.070312 9.914062 C 15.261719 10.359375 15.3125 10.703125 15.308594 11.191406 C 15.304688 11.308594 15.304688 11.425781 15.304688 11.542969 C 15.300781 11.734375 15.300781 11.734375 15.300781 11.929688 C 15.296875 12.066406 15.296875 12.203125 15.296875 12.335938 C 15.292969 12.554688 15.292969 12.769531 15.292969 12.988281 C 15.285156 13.527344 15.285156 14.070312 15.28125 14.609375 C 15.28125 14.726562 15.28125 14.726562 15.28125 14.847656 C 15.28125 15.171875 15.28125 15.5 15.28125 15.824219 C 15.277344 16.742188 15.273438 17.660156 15.265625 18.578125 C 15.257812 19.308594 15.253906 20.039062 15.253906 20.769531 C 15.253906 21.15625 15.253906 21.539062 15.246094 21.925781 C 15.214844 23.855469 15.429688 25.300781 16.582031 26.914062 C 16.699219 27.109375 16.699219 27.109375 16.699219 27.410156 C 13.730469 27.410156 10.761719 27.410156 7.699219 27.410156 C 8.347656 26.757812 9.023438 26.269531 9.960938 26.21875 C 10.195312 26.21875 10.429688 26.222656 10.664062 26.230469 C 10.789062 26.230469 10.914062 26.230469 11.042969 26.234375 C 11.4375 26.238281 11.832031 26.246094 12.226562 26.253906 C 12.492188 26.257812 12.761719 26.261719 13.03125 26.265625 C 13.6875 26.273438 14.34375 26.285156 15 26.300781 C 14.902344 26.132812 14.804688 25.964844 14.707031 25.800781 C 14.652344 25.707031 14.597656 25.613281 14.539062 25.519531 C 14.417969 25.300781 14.417969 25.300781 14.300781 25.1875 C 14.289062 24.96875 14.289062 24.75 14.289062 24.527344 C 14.289062 24.460938 14.289062 24.390625 14.289062 24.320312 C 14.289062 24.082031 14.289062 23.847656 14.289062 23.613281 C 14.289062 23.449219 14.289062 23.28125 14.289062 23.113281 C 14.289062 22.65625 14.289062 22.199219 14.289062 21.746094 C 14.289062 21.269531 14.289062 20.792969 14.289062 20.316406 C 14.289062 19.414062 14.292969 18.511719 14.292969 17.609375 C 14.292969 16.582031 14.292969 15.558594 14.296875 14.53125 C 14.296875 12.417969 14.296875 10.304688 14.300781 8.191406 Z M 14.300781 8.191406 "/>
<path style=" stroke:none;fill-rule:nonzero;fill:rgb(96.862745%,78.431374%,20.784314%);fill-opacity:1;" d="M 25.699219 18.105469 C 25.734375 18.171875 25.765625 18.238281 25.800781 18.308594 C 25.714844 18.539062 25.625 18.761719 25.523438 18.984375 C 25.472656 19.105469 25.417969 19.226562 25.363281 19.351562 C 25.339844 19.40625 25.316406 19.460938 25.289062 19.515625 C 25.261719 19.585938 25.230469 19.652344 25.199219 19.722656 C 25.148438 19.824219 25.097656 19.921875 25.046875 20.023438 C 24.839844 20.519531 24.855469 21.011719 24.855469 21.542969 C 24.855469 21.652344 24.855469 21.765625 24.851562 21.875 C 24.851562 22.238281 24.851562 22.601562 24.851562 22.960938 C 24.847656 23.214844 24.847656 23.46875 24.847656 23.71875 C 24.84375 24.25 24.84375 24.777344 24.84375 25.308594 C 24.84375 25.851562 24.84375 26.390625 24.839844 26.933594 C 24.832031 27.589844 24.832031 28.246094 24.832031 28.902344 C 24.832031 29.152344 24.828125 29.398438 24.828125 29.648438 C 24.824219 30 24.824219 30.347656 24.828125 30.699219 C 24.824219 30.800781 24.824219 30.902344 24.820312 31.007812 C 24.832031 31.871094 25.121094 32.585938 25.726562 33.207031 C 25.910156 33.375 26.101562 33.53125 26.300781 33.683594 C 26.167969 33.949219 26.035156 34.21875 25.898438 34.492188 C 25.210938 34.316406 24.730469 33.882812 24.300781 33.320312 C 23.597656 32.105469 23.703125 30.8125 23.71875 29.441406 C 23.71875 29.175781 23.71875 28.914062 23.71875 28.648438 C 23.71875 28.097656 23.71875 27.546875 23.726562 27 C 23.730469 26.363281 23.730469 25.730469 23.730469 25.09375 C 23.730469 24.480469 23.730469 23.867188 23.734375 23.25 C 23.734375 22.992188 23.734375 22.730469 23.734375 22.472656 C 23.738281 22.109375 23.738281 21.746094 23.742188 21.382812 C 23.742188 21.277344 23.742188 21.167969 23.742188 21.058594 C 23.753906 20.417969 23.84375 20.054688 24.199219 19.523438 C 24.25 19.347656 24.25 19.347656 24.300781 19.167969 C 24.519531 18.601562 25.195312 18.367188 25.699219 18.105469 Z M 25.699219 18.105469 "/>
<path style=" stroke:none;fill-rule:nonzero;fill:rgb(90.588236%,76.078433%,27.058825%);fill-opacity:1;" d="M 28.300781 7.992188 C 28.398438 8.191406 28.398438 8.191406 28.3125 8.496094 C 28.242188 8.683594 28.242188 8.683594 28.175781 8.871094 C 28.109375 9.050781 28.109375 9.050781 28.042969 9.238281 C 27.898438 9.609375 27.898438 9.609375 27.742188 9.898438 C 27.5 10.476562 27.554688 11.117188 27.558594 11.734375 C 27.554688 11.878906 27.554688 12.023438 27.554688 12.164062 C 27.550781 12.554688 27.550781 12.941406 27.550781 13.332031 C 27.546875 13.738281 27.546875 14.144531 27.542969 14.550781 C 27.539062 15.316406 27.535156 16.085938 27.535156 16.855469 C 27.53125 17.730469 27.527344 18.605469 27.523438 19.480469 C 27.511719 21.28125 27.503906 23.082031 27.5 24.882812 C 27.46875 24.882812 27.433594 24.882812 27.398438 24.882812 C 27.398438 20.242188 27.398438 15.601562 27.398438 10.824219 C 27.152344 11.074219 27.152344 11.074219 26.898438 11.328125 C 26.835938 11.394531 26.769531 11.460938 26.699219 11.527344 C 26.636719 11.589844 26.578125 11.652344 26.511719 11.714844 C 26.449219 11.777344 26.390625 11.835938 26.324219 11.898438 C 26.132812 12.101562 25.953125 12.308594 25.769531 12.519531 C 25.414062 12.933594 25.046875 13.332031 24.675781 13.730469 C 24.226562 14.214844 23.777344 14.695312 23.335938 15.183594 C 22.921875 15.644531 22.503906 16.105469 22.085938 16.5625 C 22.003906 16.65625 22.003906 16.65625 21.914062 16.753906 C 21.777344 16.902344 21.640625 17.050781 21.5 17.195312 C 21.46875 17.195312 21.433594 17.195312 21.398438 17.195312 C 21.265625 15.832031 21.265625 15.832031 21.542969 15.304688 C 21.734375 15.09375 21.929688 14.902344 22.140625 14.714844 C 22.476562 14.402344 22.777344 14.054688 23.085938 13.71875 C 23.226562 13.570312 23.367188 13.417969 23.507812 13.269531 C 24.011719 12.730469 24.503906 12.179688 25 11.632812 C 25.179688 11.433594 25.363281 11.230469 25.542969 11.03125 C 25.589844 10.980469 25.632812 10.933594 25.679688 10.878906 C 26.019531 10.503906 26.363281 10.128906 26.707031 9.753906 C 27.242188 9.167969 27.769531 8.582031 28.300781 7.992188 Z M 28.300781 7.992188 "/>
<path style=" stroke:none;fill-rule:nonzero;fill:rgb(95.294118%,77.64706%,21.176471%);fill-opacity:1;" d="M 17 4.449219 C 17.527344 4.875 17.976562 5.351562 18.429688 5.855469 C 18.769531 6.234375 19.121094 6.601562 19.480469 6.960938 C 19.851562 7.332031 20.207031 7.707031 20.542969 8.109375 C 20.695312 8.296875 20.695312 8.296875 20.875 8.457031 C 21.164062 8.738281 21.289062 8.90625 21.335938 9.316406 C 21.335938 9.617188 21.328125 9.914062 21.300781 10.214844 C 20.570312 9.605469 19.890625 8.941406 19.273438 8.214844 C 18.882812 7.761719 18.464844 7.34375 18.042969 6.921875 C 17.636719 6.515625 17.226562 6.109375 16.84375 5.683594 C 16.769531 5.601562 16.769531 5.601562 16.695312 5.519531 C 16.601562 5.359375 16.601562 5.359375 16.648438 5.03125 C 16.800781 4.753906 16.800781 4.753906 17 4.449219 Z M 17 4.449219 "/>
<path style=" stroke:none;fill-rule:nonzero;fill:rgb(96.470588%,78.823531%,23.137255%);fill-opacity:1;" d="M 35.398438 18.207031 C 35.648438 18.304688 35.898438 18.402344 36.144531 18.503906 C 36.328125 18.582031 36.507812 18.652344 36.695312 18.71875 C 37.050781 19.058594 37.117188 19.550781 37.199219 20.027344 C 37.199219 20.195312 37.199219 20.363281 37.199219 20.535156 C 36.871094 20.535156 36.539062 20.535156 36.199219 20.535156 C 36.066406 20.203125 35.933594 19.871094 35.800781 19.539062 C 35.761719 19.445312 35.722656 19.351562 35.683594 19.257812 C 35.648438 19.164062 35.613281 19.074219 35.574219 18.984375 C 35.542969 18.898438 35.507812 18.816406 35.472656 18.730469 C 35.398438 18.511719 35.398438 18.511719 35.398438 18.207031 Z M 35.398438 18.207031 "/>
<path style=" stroke:none;fill-rule:nonzero;fill:rgb(95.294118%,78.039217%,21.960784%);fill-opacity:1;" d="M 7.699219 4.550781 C 8.453125 4.667969 9.226562 5.035156 9.722656 5.625 C 9.871094 5.871094 10.003906 6.101562 10.101562 6.371094 C 9.972656 6.632812 9.871094 6.640625 9.605469 6.738281 C 9.5 6.777344 9.5 6.777344 9.390625 6.820312 C 9.199219 6.878906 9.199219 6.878906 9 6.878906 C 8.910156 6.714844 8.910156 6.714844 8.816406 6.550781 C 8.738281 6.402344 8.65625 6.257812 8.574219 6.113281 C 8.535156 6.042969 8.496094 5.972656 8.453125 5.898438 C 8.207031 5.449219 7.953125 5 7.699219 4.550781 Z M 7.699219 4.550781 "/>
<path style=" stroke:none;fill-rule:nonzero;fill:rgb(96.078432%,78.431374%,21.960784%);fill-opacity:1;" d="M 17.300781 18.207031 C 17.601562 18.371094 17.902344 18.539062 18.199219 18.710938 C 18.265625 18.75 18.332031 18.789062 18.402344 18.828125 C 18.910156 19.148438 19.128906 19.554688 19.300781 20.128906 C 19.300781 20.230469 19.300781 20.328125 19.300781 20.433594 C 18.804688 20.480469 18.804688 20.480469 18.300781 20.535156 C 18.132812 20.183594 17.964844 19.832031 17.800781 19.484375 C 17.753906 19.382812 17.703125 19.285156 17.65625 19.183594 C 17.585938 19.039062 17.585938 19.039062 17.519531 18.894531 C 17.476562 18.804688 17.433594 18.71875 17.390625 18.628906 C 17.300781 18.410156 17.300781 18.410156 17.300781 18.207031 Z M 17.300781 18.207031 "/>
<path style=" stroke:none;fill-rule:nonzero;fill:rgb(57.254905%,54.11765%,29.411766%);fill-opacity:1;" d="M 14.800781 30.851562 C 15.058594 31.078125 15.09375 31.214844 15.144531 31.558594 C 15.101562 31.863281 15.101562 31.863281 14.945312 32.101562 C 14.605469 32.328125 14.398438 32.324219 14 32.265625 C 13.757812 32.109375 13.757812 32.109375 13.601562 31.863281 C 13.542969 31.507812 13.542969 31.507812 13.601562 31.152344 C 13.964844 30.703125 14.261719 30.6875 14.800781 30.851562 Z M 14.800781 30.851562 "/>
<path style=" stroke:none;fill-rule:nonzero;fill:rgb(23.529412%,34.117648%,38.431373%);fill-opacity:1;" d="M 14.800781 30.851562 C 15.058594 31.078125 15.09375 31.214844 15.144531 31.558594 C 15.101562 31.863281 15.101562 31.863281 14.945312 32.101562 C 14.605469 32.328125 14.398438 32.324219 14 32.265625 C 13.757812 32.109375 13.757812 32.109375 13.601562 31.863281 C 13.542969 31.507812 13.542969 31.507812 13.601562 31.152344 C 13.964844 30.703125 14.261719 30.6875 14.800781 30.851562 Z M 13.925781 31.066406 C 13.742188 31.34375 13.761719 31.535156 13.800781 31.863281 C 13.898438 32.070312 13.898438 32.070312 14.101562 32.164062 C 14.464844 32.144531 14.636719 32.125 14.898438 31.863281 C 14.949219 31.5625 14.949219 31.5625 14.898438 31.253906 C 14.734375 31.054688 14.734375 31.054688 14.5 30.953125 C 14.121094 30.914062 14.121094 30.914062 13.925781 31.066406 Z M 13.925781 31.066406 "/>
<path style=" stroke:none;fill-rule:nonzero;fill:rgb(82.745099%,69.411767%,22.745098%);fill-opacity:1;" d="M 14.101562 30.953125 C 14.675781 31.027344 14.675781 31.027344 14.898438 31.253906 C 14.9375 31.550781 14.9375 31.550781 14.898438 31.863281 C 14.730469 32.058594 14.730469 32.058594 14.5 32.164062 C 14.226562 32.132812 14.226562 32.132812 14 32.0625 C 14.066406 32.03125 14.132812 31.996094 14.199219 31.964844 C 14.199219 31.863281 14.199219 31.761719 14.199219 31.660156 C 14.265625 31.660156 14.332031 31.660156 14.398438 31.660156 C 14.433594 31.726562 14.464844 31.792969 14.5 31.863281 C 14.53125 31.628906 14.566406 31.394531 14.601562 31.152344 C 14.402344 31.152344 14.203125 31.152344 14 31.152344 C 14.03125 31.085938 14.066406 31.019531 14.101562 30.953125 Z M 14.101562 30.953125 "/>
<path style=" stroke:none;fill-rule:nonzero;fill:rgb(97.647059%,81.960785%,32.941177%);fill-opacity:1;" d="M 28.300781 7.992188 C 28.332031 8.058594 28.367188 8.125 28.398438 8.191406 C 28.304688 8.433594 28.207031 8.667969 28.101562 8.902344 C 28 8.902344 27.902344 8.902344 27.800781 8.902344 C 27.601562 9.082031 27.414062 9.261719 27.230469 9.457031 C 27.179688 9.511719 27.128906 9.5625 27.078125 9.617188 C 26.949219 9.75 26.824219 9.882812 26.699219 10.015625 C 26.632812 9.980469 26.566406 9.945312 26.5 9.914062 C 26.570312 9.839844 26.640625 9.769531 26.714844 9.699219 C 27.265625 9.148438 27.800781 8.589844 28.300781 7.992188 Z M 28.300781 7.992188 "/>
<path style=" stroke:none;fill-rule:nonzero;fill:rgb(18.431373%,30.980393%,39.607844%);fill-opacity:1;" d="M 14 31.152344 C 14.199219 31.152344 14.394531 31.152344 14.601562 31.152344 C 14.601562 31.421875 14.601562 31.6875 14.601562 31.964844 C 14.445312 31.835938 14.445312 31.835938 14.300781 31.660156 C 14.332031 31.4375 14.332031 31.4375 14.398438 31.253906 C 14.335938 31.253906 14.269531 31.253906 14.199219 31.253906 C 14.167969 31.320312 14.132812 31.390625 14.101562 31.457031 C 14.066406 31.355469 14.035156 31.257812 14 31.152344 Z M 14 31.152344 "/>
<path style=" stroke:none;fill-rule:nonzero;fill:rgb(73.725492%,64.313728%,25.098041%);fill-opacity:1;" d="M 14.199219 31.660156 C 14.265625 31.660156 14.332031 31.660156 14.398438 31.660156 C 14.433594 31.726562 14.464844 31.792969 14.5 31.863281 C 14.597656 31.863281 14.699219 31.863281 14.800781 31.863281 C 14.679688 32.019531 14.679688 32.019531 14.5 32.164062 C 14.230469 32.132812 14.230469 32.132812 14 32.0625 C 14.066406 32.03125 14.132812 31.996094 14.199219 31.964844 C 14.199219 31.863281 14.199219 31.761719 14.199219 31.660156 Z M 14.199219 31.660156 "/>
</g>
</svg>
