<?xml version="1.0" encoding="UTF-8"?>
<svg xmlns="http://www.w3.org/2000/svg" xmlns:xlink="http://www.w3.org/1999/xlink" width="150px" height="32px" viewBox="0 0 150 32" version="1.1">
<g id="surface1">
<path style=" stroke:none;fill-rule:nonzero;fill:rgb(45.09804%,45.09804%,45.09804%);fill-opacity:1;" d="M 62.394531 6.398438 L 62.394531 25.601562 L 59.066406 25.601562 L 59.066406 10.535156 L 59.023438 10.535156 L 53.078125 25.601562 L 50.859375 25.601562 L 44.777344 10.535156 L 44.734375 10.535156 L 44.734375 25.601562 L 41.671875 25.601562 L 41.671875 6.398438 L 46.464844 6.398438 L 51.96875 20.621094 L 52.054688 20.621094 L 57.871094 6.398438 Z M 65.148438 7.867188 C 65.148438 7.332031 65.324219 6.890625 65.726562 6.535156 C 66.125 6.179688 66.566406 6 67.101562 6 C 67.675781 6 68.164062 6.179688 68.519531 6.535156 C 68.875 6.890625 69.097656 7.332031 69.097656 7.867188 C 69.097656 8.398438 68.921875 8.84375 68.519531 9.199219 C 68.121094 9.554688 67.675781 9.734375 67.101562 9.734375 C 66.523438 9.734375 66.078125 9.554688 65.726562 9.199219 C 65.371094 8.800781 65.148438 8.355469 65.148438 7.867188 Z M 68.742188 11.820312 L 68.742188 25.601562 L 65.503906 25.601562 L 65.503906 11.820312 Z M 78.550781 23.246094 C 79.039062 23.246094 79.570312 23.15625 80.148438 22.890625 C 80.726562 22.667969 81.257812 22.355469 81.746094 22 L 81.746094 25.023438 C 81.214844 25.332031 80.636719 25.554688 79.96875 25.6875 C 79.304688 25.820312 78.59375 25.910156 77.796875 25.910156 C 75.753906 25.910156 74.113281 25.289062 72.871094 24 C 71.582031 22.710938 70.960938 21.066406 70.960938 19.109375 C 70.960938 16.890625 71.628906 15.066406 72.914062 13.644531 C 74.203125 12.222656 76.019531 11.511719 78.417969 11.511719 C 79.039062 11.511719 79.660156 11.601562 80.238281 11.734375 C 80.859375 11.867188 81.347656 12.089844 81.703125 12.265625 L 81.703125 15.378906 C 81.214844 15.023438 80.679688 14.710938 80.191406 14.535156 C 79.660156 14.355469 79.128906 14.222656 78.59375 14.222656 C 77.308594 14.222656 76.285156 14.621094 75.488281 15.464844 C 74.6875 16.3125 74.335938 17.421875 74.335938 18.84375 C 74.335938 20.222656 74.734375 21.332031 75.488281 22.089844 C 76.242188 22.84375 77.261719 23.246094 78.550781 23.246094 Z M 90.933594 11.601562 C 91.199219 11.601562 91.421875 11.601562 91.640625 11.644531 C 91.863281 11.6875 92.042969 11.734375 92.175781 11.777344 L 92.175781 15.066406 C 91.996094 14.933594 91.773438 14.800781 91.421875 14.710938 C 91.066406 14.621094 90.710938 14.535156 90.222656 14.535156 C 89.421875 14.535156 88.757812 14.890625 88.226562 15.554688 C 87.691406 16.222656 87.382812 17.246094 87.382812 18.667969 L 87.382812 25.601562 L 84.140625 25.601562 L 84.140625 11.820312 L 87.382812 11.820312 L 87.382812 14 L 87.425781 14 C 87.738281 13.246094 88.179688 12.667969 88.757812 12.222656 C 89.378906 11.820312 90.089844 11.601562 90.933594 11.601562 Z M 92.351562 18.933594 C 92.351562 16.667969 93.019531 14.84375 94.261719 13.511719 C 95.546875 12.179688 97.324219 11.511719 99.585938 11.511719 C 101.714844 11.511719 103.402344 12.132812 104.601562 13.421875 C 105.796875 14.710938 106.421875 16.445312 106.421875 18.621094 C 106.421875 20.84375 105.753906 22.621094 104.511719 23.957031 C 103.226562 25.289062 101.492188 25.957031 99.273438 25.957031 C 97.144531 25.957031 95.457031 25.332031 94.214844 24.089844 C 92.972656 22.800781 92.351562 21.066406 92.351562 18.933594 Z M 95.726562 18.800781 C 95.726562 20.222656 96.035156 21.332031 96.703125 22.089844 C 97.367188 22.84375 98.296875 23.246094 99.496094 23.246094 C 100.652344 23.246094 101.582031 22.890625 102.203125 22.089844 C 102.824219 21.332031 103.136719 20.222656 103.136719 18.710938 C 103.136719 17.246094 102.824219 16.132812 102.203125 15.332031 C 101.582031 14.578125 100.652344 14.179688 99.542969 14.179688 C 98.34375 14.179688 97.457031 14.578125 96.789062 15.378906 C 96.035156 16.222656 95.726562 17.332031 95.726562 18.800781 Z M 111.257812 15.464844 C 111.257812 15.910156 111.390625 16.3125 111.703125 16.578125 C 112.011719 16.84375 112.632812 17.15625 113.652344 17.554688 C 114.941406 18.089844 115.871094 18.667969 116.359375 19.289062 C 116.894531 19.957031 117.160156 20.710938 117.160156 21.644531 C 117.160156 22.933594 116.671875 23.957031 115.652344 24.753906 C 114.675781 25.554688 113.296875 25.910156 111.613281 25.910156 C 111.035156 25.910156 110.414062 25.820312 109.703125 25.6875 C 108.992188 25.554688 108.417969 25.378906 107.929688 25.15625 L 107.929688 21.957031 C 108.507812 22.355469 109.171875 22.710938 109.835938 22.933594 C 110.503906 23.15625 111.125 23.289062 111.703125 23.289062 C 112.410156 23.289062 112.988281 23.199219 113.296875 22.976562 C 113.652344 22.753906 113.832031 22.445312 113.832031 21.957031 C 113.832031 21.511719 113.652344 21.15625 113.296875 20.800781 C 112.945312 20.488281 112.234375 20.132812 111.257812 19.734375 C 110.058594 19.246094 109.214844 18.667969 108.726562 18.042969 C 108.238281 17.421875 107.972656 16.621094 107.972656 15.644531 C 107.972656 14.398438 108.460938 13.378906 109.4375 12.578125 C 110.414062 11.777344 111.703125 11.378906 113.253906 11.378906 C 113.742188 11.378906 114.273438 11.421875 114.851562 11.554688 C 115.429688 11.6875 115.960938 11.820312 116.359375 11.957031 L 116.359375 15.109375 C 115.917969 14.84375 115.429688 14.578125 114.851562 14.355469 C 114.273438 14.132812 113.699219 14.042969 113.164062 14.042969 C 112.542969 14.042969 112.054688 14.179688 111.746094 14.398438 C 111.433594 14.710938 111.257812 15.023438 111.257812 15.464844 Z M 118.535156 18.933594 C 118.535156 16.667969 119.203125 14.84375 120.445312 13.511719 C 121.730469 12.179688 123.507812 11.511719 125.769531 11.511719 C 127.898438 11.511719 129.585938 12.132812 130.785156 13.421875 C 131.980469 14.710938 132.605469 16.445312 132.605469 18.621094 C 132.605469 20.84375 131.9375 22.621094 130.695312 23.957031 C 129.410156 25.289062 127.675781 25.957031 125.457031 25.957031 C 123.328125 25.957031 121.640625 25.332031 120.398438 24.089844 C 119.203125 22.800781 118.535156 21.066406 118.535156 18.933594 Z M 121.910156 18.800781 C 121.910156 20.222656 122.21875 21.332031 122.882812 22.089844 C 123.550781 22.84375 124.480469 23.246094 125.679688 23.246094 C 126.835938 23.246094 127.765625 22.890625 128.386719 22.089844 C 129.007812 21.332031 129.320312 20.222656 129.320312 18.710938 C 129.320312 17.246094 129.007812 16.132812 128.386719 15.332031 C 127.765625 14.578125 126.835938 14.179688 125.726562 14.179688 C 124.527344 14.179688 123.640625 14.578125 122.972656 15.378906 C 122.261719 16.222656 121.910156 17.332031 121.910156 18.800781 Z M 143.386719 14.488281 L 138.550781 14.488281 L 138.550781 25.601562 L 135.265625 25.601562 L 135.265625 14.488281 L 132.957031 14.488281 L 132.957031 11.820312 L 135.265625 11.820312 L 135.265625 9.910156 C 135.265625 8.488281 135.753906 7.289062 136.6875 6.355469 C 137.617188 5.421875 138.816406 4.976562 140.28125 4.976562 C 140.679688 4.976562 141.035156 5.023438 141.347656 5.023438 C 141.65625 5.023438 141.921875 5.109375 142.144531 5.199219 L 142.144531 8 C 142.054688 7.957031 141.835938 7.867188 141.566406 7.777344 C 141.300781 7.6875 140.992188 7.644531 140.636719 7.644531 C 139.96875 7.644531 139.4375 7.867188 139.082031 8.265625 C 138.726562 8.667969 138.550781 9.332031 138.550781 10.132812 L 138.550781 11.777344 L 143.386719 11.777344 L 143.386719 8.667969 L 146.628906 7.6875 L 146.628906 11.777344 L 149.910156 11.777344 L 149.910156 14.445312 L 146.628906 14.445312 L 146.628906 20.890625 C 146.628906 21.734375 146.804688 22.3125 147.070312 22.667969 C 147.382812 23.023438 147.871094 23.199219 148.535156 23.199219 C 148.714844 23.199219 148.933594 23.15625 149.203125 23.066406 C 149.46875 22.976562 149.6875 22.890625 149.867188 22.753906 L 149.867188 25.421875 C 149.644531 25.554688 149.335938 25.644531 148.847656 25.734375 C 148.359375 25.820312 147.914062 25.867188 147.425781 25.867188 C 146.050781 25.867188 145.03125 25.511719 144.363281 24.800781 C 143.699219 24.089844 143.34375 22.976562 143.34375 21.511719 Z M 143.386719 14.488281 "/>
<path style=" stroke:none;fill-rule:nonzero;fill:rgb(94.901961%,31.37255%,13.333334%);fill-opacity:1;" d="M 0.0898438 0 L 15.265625 0 L 15.265625 15.199219 L 0.0898438 15.199219 Z M 0.0898438 0 "/>
<path style=" stroke:none;fill-rule:nonzero;fill:rgb(49.803922%,72.941178%,0%);fill-opacity:1;" d="M 16.863281 0 L 32.042969 0 L 32.042969 15.199219 L 16.863281 15.199219 Z M 16.863281 0 "/>
<path style=" stroke:none;fill-rule:nonzero;fill:rgb(0%,64.313728%,93.725491%);fill-opacity:1;" d="M 0.0898438 16.800781 L 15.265625 16.800781 L 15.265625 32 L 0.0898438 32 Z M 0.0898438 16.800781 "/>
<path style=" stroke:none;fill-rule:nonzero;fill:rgb(100%,72.549021%,0%);fill-opacity:1;" d="M 16.863281 16.800781 L 32.042969 16.800781 L 32.042969 32 L 16.863281 32 Z M 16.863281 16.800781 "/>
</g>
</svg>
