<?xml version="1.0" encoding="UTF-8"?>
<svg xmlns="http://www.w3.org/2000/svg" xmlns:xlink="http://www.w3.org/1999/xlink" width="50px" height="50px" viewBox="0 0 50 50" version="1.1">
<g id="surface1">
<path style=" stroke:none;fill-rule:nonzero;fill:rgb(46.27451%,72.549021%,0%);fill-opacity:1;" d="M 18.640625 18.328125 L 18.640625 15.351562 C 18.9375 15.328125 19.230469 15.316406 19.523438 15.3125 C 27.695312 15.054688 33.050781 22.339844 33.050781 22.339844 C 33.050781 22.339844 27.273438 30.363281 21.074219 30.363281 C 20.242188 30.363281 19.433594 30.234375 18.660156 29.980469 L 18.660156 20.925781 C 21.84375 21.308594 22.488281 22.710938 24.382812 25.894531 L 28.632812 22.324219 C 28.632812 22.324219 25.523438 18.257812 20.300781 18.257812 C 19.746094 18.242188 19.191406 18.269531 18.640625 18.328125 M 18.640625 8.464844 L 18.640625 12.917969 L 19.523438 12.863281 C 30.878906 12.476562 38.296875 22.175781 38.296875 22.175781 C 38.296875 22.175781 29.796875 32.515625 20.941406 32.515625 C 20.171875 32.515625 19.414062 32.445312 18.660156 32.316406 L 18.660156 35.074219 C 19.285156 35.148438 19.929688 35.203125 20.554688 35.203125 C 28.800781 35.203125 34.765625 30.988281 40.542969 26.019531 C 41.496094 26.792969 45.417969 28.652344 46.230469 29.460938 C 40.742188 34.0625 27.953125 37.761719 20.703125 37.761719 C 20.003906 37.761719 19.339844 37.726562 18.679688 37.652344 L 18.679688 41.535156 L 50 41.535156 L 50 8.464844 Z M 18.640625 29.976562 L 18.640625 32.332031 C 11.023438 30.972656 8.90625 23.042969 8.90625 23.042969 C 8.90625 23.042969 12.570312 18.992188 18.640625 18.328125 L 18.640625 20.90625 L 18.625 20.90625 C 15.441406 20.519531 12.9375 23.5 12.9375 23.5 C 12.9375 23.5 14.355469 28.523438 18.644531 29.980469 M 5.117188 22.707031 C 5.117188 22.707031 9.625 16.046875 18.660156 15.347656 L 18.660156 12.917969 C 8.652344 13.730469 0 22.195312 0 22.195312 C 0 22.195312 4.894531 36.363281 18.640625 37.652344 L 18.640625 35.074219 C 8.558594 33.824219 5.117188 22.707031 5.117188 22.707031 Z M 5.117188 22.707031 "/>
</g>
</svg>
